/* XPM */
static char * bomberman2_xpm[] = {
"32 32 15 1",
" 	c #000000",
".	c #000000",
"+	c #A81000",
"@	c #FF00FF",
"#	c #F83800",
"$	c #7C7C7C",
"%	c #F87858",
"&	c #3CBCFF",
"*	c #58D854",
"=	c #FFA044",
"-	c #BCBCBC",
";	c #F8A4C0",
">	c #F8D878",
",	c #F8F8F8",
"'	c #FFFFFF",
"                                ",
"                                ",
"                                ",
"                                ",
"           .     .    .  .      ",
"         ..+#####+.. .+ %+.     ",
"        .++#######+ ..+%%+.     ",
"       .+###########+.+%% .     ",
"      . %%%%%%%%%####+   .      ",
"      .%%.%%%%.%%%###+.         ",
"      .%%.%%%%.%%%###+.         ",
"      .%%.%%%%.%%%###+.         ",
"      .%%.%%%%.%%%###+.         ",
"      .%%%%%%%%%%####+.         ",
"      ...###########++.         ",
"     ...................        ",
"    . ###.++++++++.+###+.       ",
"   .  ##++%%%%%%%%+#### +.      ",
"  . %+#++%%%%%%%%%%+####+.      ",
"  .+%%+++++%%%%++++.+##+ +.     ",
"  .+%%+.+++%%%%++++ .++%%+.     ",
"   .    +%%%%%%%%%% ..+ % .     ",
"       .+++%%%%%%++ . .  .      ",
"      .+###++++++## +. ..       ",
"      .+++++... +++++.          ",
"     .++++++.   ++++++.         ",
"     . %%%%+    %%%%% .         ",
"      +++++.....+++++.          ",
"      ................          ",
"                                ",
"                                ",
"                                "};
