/* XPM */
static char * bomb_xpm[] = {
"40 40 94 2",
"  	c #FFFFFF",
". 	c #C91051",
"+ 	c #000000",
"@ 	c #660829",
"# 	c #FBECF1",
"$ 	c #CCAB7F",
"% 	c #403628",
"& 	c #CC1052",
"* 	c #CF1053",
"= 	c #630828",
"- 	c #5E0726",
"; 	c #D21155",
"> 	c #600827",
", 	c #352D21",
"' 	c #68082A",
") 	c #D2B083",
"! 	c #FDF2F6",
"~ 	c #C20F4E",
"{ 	c #C70047",
"] 	c #C60041",
"^ 	c #B20E48",
"/ 	c #BC0F4C",
"( 	c #A80D44",
"_ 	c #B60E49",
": 	c #7F0A33",
"< 	c #8E0B39",
"[ 	c #C8004C",
"} 	c #A20D41",
"| 	c #F4F4F4",
"1 	c #970C3D",
"2 	c #73092E",
"3 	c #500620",
"4 	c #ADADAD",
"5 	c #3B3225",
"6 	c #70092D",
"7 	c #494949",
"8 	c #F6F6F6",
"9 	c #42051B",
"0 	c #E9E9E9",
"a 	c #8F8F8F",
"b 	c #767676",
"c 	c #CACACA",
"d 	c #30291E",
"e 	c #828282",
"f 	c #9B9B9B",
"g 	c #A3A3A3",
"h 	c #2A2A2A",
"i 	c #897355",
"j 	c #575757",
"k 	c #D9D9D9",
"l 	c #310414",
"m 	c #6B6B6B",
"n 	c #21030D",
"o 	c #4C061F",
"p 	c #2F0413",
"q 	c #C7C7C7",
"r 	c #1E1913",
"s 	c #977E5E",
"t 	c #B6B6B6",
"u 	c #7A7A7A",
"v 	c #3F3F3F",
"w 	c #25030F",
"x 	c #850B35",
"y 	c #F2CDD8",
"z 	c #4D4130",
"A 	c #756249",
"B 	c #62523D",
"C 	c #1F1F1F",
"D 	c #5D4E3A",
"E 	c #B99B73",
"F 	c #2F2F2F",
"G 	c #160209",
"H 	c #DD7F99",
"I 	c #101010",
"J 	c #E7A6B8",
"K 	c #CE3565",
"L 	c #E18EA5",
"M 	c #927A5B",
"N 	c #A48A66",
"O 	c #231D16",
"P 	c #F7DCE5",
"Q 	c #ECB6C5",
"R 	c #D24C74",
"S 	c #64001D",
"T 	c #510014",
"U 	c #41000F",
"V 	c #DC6A8B",
"W 	c #E395AB",
"X 	c #DA728F",
"Y 	c #E7A8B9",
"Z 	c #F4D3DD",
"` 	c #D4577B",
" .	c #CD2C5F",
"..	c #EFC2CF",
"+ + + + + + + + + + + + + + + + + + + + + + + + + + + + + + + C v F 7 r v v v + ",
"+ + + + + + + + + + + + + + + + + + + + + + + + + + + + + h F F I z B O O + C 7 ",
"+ + + + + + + + + + + + + + + + + + + + + + + + + + + + v C d N N E N % % O h F ",
"+ + + + + + + + + + + + + + + + + + + + + + + v v F F 7 O N N $ N $ i % % O F C ",
"+ + + + + + + + + + + + + + + + + + + + + v v I I h 7 % i $ N $ N N A d , r h v ",
"+ + + + + + + + + + + + + C v v v I C j h v 2 ^ / } O E N $ N i d h F C F + v + ",
"+ + + + + + + + + + r v v v G U - ' @ - p w ~ . . ' i $ E E D C v F + + r F v + ",
"+ + + + + + + + r 7 7 l x ( ~ . . . . ~ 6 3 ^ . ( i E E $ % G v + + + + + + + + ",
"+ + + + + + + v F 9 } ~ . . . . . . } - l @ 2 ~ ^ B $ s A 1 1 r v + + + + + + + ",
"+ + + + + + v I < ~ . . . . . . . . 2 3 o @ @ : / ( % B 2 . . o v + + + + + + + ",
"+ + + + + + l } / . . . . . . . . . < - p @ @ @ _ . . ~ . . . @ r + + + + + + + ",
"+ + + C h U } : . . . . . . . . . . ~ 6 9 9 @ x . . 2 } . . ^ G v + + + + + + + ",
"+ + + F p } ' } . . . . . . . . . . . / 2 9 9 ^ . ( @ _ . . - F F + + + + + + + ",
"+ + F r 1 6 @ / . . . . . . . . . . . . ~ 1 3 3 } 2 < . . < < x v I + + + + + + ",
"+ C 7 2 x @ 6 . . . . . . . . . . . . . . . / 1 - w - : ' 2 . ~ o v + + + + + + ",
"+ v n 1 @ @ x . . . . . . . . . . . . . . . . . V Q ..Y R . . . } h C + + + + + ",
"C v : 2 @ @ 1 . . . . . . . . . . . . . . . . V # # # # # H . . . 3 v + + + + + ",
"v I 1 @ @ @ } . . . . . . . . . . . . . . . . Q # # # # # # X . . 1 7 + + + + + ",
"7 3 < @ @ @ } . . . . . . . . . . . . . . . . ..# # # # # # Z . . / h 7 + + + + ",
"F x 6 @ @ @ 1 . . . . . . . . . . . . . . . . J # # # # # # # R . . U v + + + + ",
"7 < @ @ @ @ < . . . . . . . . . . . . . . . . R P # # # # # # ` . . ' v + + + + ",
"C 1 @ @ @ @ : . . . . . . . . . . . . . . . . . H # # # # # P  .. . : v + + + + ",
"+ 1 @ @ @ @ 6 . . . . . . . . . . . . . . . . . . X Z # # P H . . . x + + + + + ",
"+ 1 @ @ @ @ @ _ . . . . . . . . . . . . . . . . . . ` V X K . . . . x I + + + + ",
"7 1 @ @ @ @ @ 1 . . . . . . . . . . . . . . . . . y # P L . . . . . 2 7 + + + + ",
"v 1 ' @ @ @ @ 2 . . . . . . . . . . . . . . . . R # # # # ` . . . . 3 F + + + + ",
"v : : @ @ @ @ @ ( . . . . . . . . . . . . . . .  .P # # # J . . . ~ G v + + + + ",
"v U } @ @ @ @ @ 2 . . . . . . . . . . . . . . . . H # # # L . . . } v h + + + + ",
"h h } @ @ @ @ @ @ } . . . . . . . . . . . . . . . . ` J L . . . . 6 v + + + + + ",
"+ v 6 < @ @ @ @ @ ' _ . . . . . . . . . . . . . . . . . . . . . _ G F + + + + + ",
"+ C r } ' @ @ @ @ @ 2 ~ . . . . . . . . . . . . . . . . . . . . 2 F + + + + + + ",
"+ + 7 - } @ @ @ @ @ @ : ~ . . . . . . . . . . . . . . . . . . ( I v + + + + + + ",
"+ + h F x < @ @ @ @ @ @ 2 / . . . . . . . . . . . . . . . . / U v + + + + + + + ",
"+ + + F F 1 x @ @ @ @ @ @ 6 ( . . . . . . . . . . . . . . ~ 3 v C + + + + + + + ",
"+ + + + F r 1 < @ @ @ @ @ @ @ < ~ . . . . . . . . . . . ~ - h h + + + + + + + + ",
"+ + + + + F v : } 6 @ @ @ @ @ @ ' 1 / . . . . . . . . ^ 9 v I + + + + + + + + + ",
"+ + + + + + F v 3 } 1 ' @ @ @ @ @ @ @ : } _ . . . ~ x O F h + + + + + + + + + + ",
"+ + + + + + + I v F - 1 } < 6 @ @ @ @ @ ' : 1 ( x p v v + + + + + + + + + + + + ",
"+ + + + + + + + + C v v p 6 < } } } } } 1 x 3 C v F I + + + + + + + + + + + + + ",
"+ + + + + + + + + + + h F v 7 v j F v j v v F 7 + + + + + + + + + + + + + + + + "};
