/* XPM */
static char * bomb2_xpm[] = {
"40 40 293 2",
"  	c #E6E6E6",
". 	c #E0DCDC",
"+ 	c #D2C0BF",
"@ 	c #BD9594",
"# 	c #B25755",
"$ 	c #B61E10",
"% 	c #C29B9A",
"& 	c #C0999A",
"* 	c #CDB1B2",
"= 	c #DFCDCD",
"- 	c #C53B17",
"; 	c #D2B8B7",
"> 	c #BA2F20",
", 	c #CBACAB",
"' 	c #DFDAD9",
") 	c #BE3C32",
"! 	c #D1958E",
"~ 	c #D9C3C2",
"{ 	c #C74A36",
"] 	c #D26015",
"^ 	c #C95730",
"/ 	c #DB7112",
"( 	c #CC6451",
"_ 	c #C89B9A",
": 	c #D3C4C3",
"< 	c #D9C4C4",
"[ 	c #E38010",
"} 	c #E38B0D",
"| 	c #EE9D0C",
"1 	c #FBBE05",
"2 	c #FCC204",
"3 	c #FDC403",
"4 	c #D27032",
"5 	c #D6BFBE",
"6 	c #CE9C9B",
"7 	c #B75553",
"8 	c #C59D9C",
"9 	c #D4BCBC",
"0 	c #BB8A89",
"a 	c #B24845",
"b 	c #B81E11",
"c 	c #C74014",
"d 	c #CF5F14",
"e 	c #E4880F",
"f 	c #FEC901",
"g 	c #FFCB00",
"h 	c #FFCC00",
"i 	c #FFCA01",
"j 	c #EC960E",
"k 	c #D96014",
"l 	c #D3948F",
"m 	c #CBCBCB",
"n 	c #595A5B",
"o 	c #75583F",
"p 	c #A57354",
"q 	c #C0734F",
"r 	c #C05C13",
"s 	c #EC9D0C",
"t 	c #F8B409",
"u 	c #C76F5D",
"v 	c #E1D0CF",
"w 	c #ADADAD",
"x 	c #4C3E2C",
"y 	c #A58B66",
"z 	c #BA9C74",
"A 	c #AB9069",
"B 	c #B78A65",
"C 	c #A92517",
"D 	c #E27713",
"E 	c #FEC802",
"F 	c #FECA01",
"G 	c #FCBF05",
"H 	c #D15B2A",
"I 	c #C09696",
"J 	c #7D7D7D",
"K 	c #030202",
"L 	c #040404",
"M 	c #303030",
"N 	c #61523B",
"O 	c #BE9F75",
"P 	c #BC9D75",
"Q 	c #8D664A",
"R 	c #68150E",
"S 	c #600404",
"T 	c #BB4E0D",
"U 	c #FDC303",
"V 	c #FEC702",
"W 	c #FFCB01",
"X 	c #F9BA08",
"Y 	c #D6770F",
"Z 	c #E9970C",
"` 	c #E17812",
" .	c #D4A39F",
"..	c #B3B3B3",
"+.	c #999999",
"@.	c #7B7B7B",
"#.	c #787878",
"$.	c #888888",
"%.	c #191718",
"&.	c #312F30",
"*.	c #2D261E",
"=.	c #B89A71",
"-.	c #AF936C",
";.	c #C2A278",
">.	c #453A29",
",.	c #6E6E6E",
"'.	c #B8B9B9",
").	c #A77271",
"!.	c #E07912",
"~.	c #FABC06",
"{.	c #CD5F1C",
"].	c #F8B408",
"^.	c #FCBE06",
"/.	c #D49C92",
"(.	c #D8BDBB",
"_.	c #D8A29D",
":.	c #C78B89",
"<.	c #B0B0B0",
"[.	c #4E4E4E",
"}.	c #222021",
"|.	c #2A2829",
"1.	c #2F2D2E",
"2.	c #2E2C2D",
"3.	c #0C0B0C",
"4.	c #252425",
"5.	c #323031",
"6.	c #232122",
"7.	c #AB906A",
"8.	c #B2956E",
"9.	c #B49770",
"0.	c #4B3E2D",
"a.	c #8B8B8B",
"b.	c #F6F6F6",
"c.	c #DED0CF",
"d.	c #BB8A8A",
"e.	c #D0681E",
"f.	c #D67B43",
"g.	c #D5C0BF",
"h.	c #E78B0E",
"i.	c #D56A13",
"j.	c #D76415",
"k.	c #C7C7C7",
"l.	c #454545",
"m.	c #292728",
"n.	c #131112",
"o.	c #0F0F0F",
"p.	c #1A1A1A",
"q.	c #AD926C",
"r.	c #AA8F69",
"s.	c #756249",
"t.	c #272526",
"u.	c #353535",
"v.	c #ECECEC",
"w.	c #DED3D3",
"x.	c #D9C5C5",
"y.	c #CF4D18",
"z.	c #E5E2E2",
"A.	c #D45E0F",
"B.	c #DBB5B0",
"C.	c #C58786",
"D.	c #C79A99",
"E.	c #9D9D9D",
"F.	c #201F20",
"G.	c #242223",
"H.	c #0F0E0E",
"I.	c #131313",
"J.	c #191919",
"K.	c #1C1C1C",
"L.	c #222122",
"M.	c #534637",
"N.	c #262526",
"O.	c #1B191A",
"P.	c #C3C3C3",
"Q.	c #F5F5F5",
"R.	c #C48582",
"S.	c #D3B4B3",
"T.	c #BA310E",
"U.	c #E2C2BF",
"V.	c #C4A4A2",
"W.	c #262425",
"X.	c #161415",
"Y.	c #090909",
"Z.	c #1C1B1C",
"`.	c #151415",
" +	c #CECECE",
".+	c #EEE8E8",
"++	c #BC8F8F",
"@+	c #B44C4A",
"#+	c #E8CCCA",
"$+	c #A4A4A4",
"%+	c #1E1D1E",
"&+	c #100F10",
"*+	c #0B0B0B",
"=+	c #282627",
"-+	c #E9E9E9",
";+	c #D0BFBE",
">+	c #B67475",
",+	c #E6DAD9",
"'+	c #D9D9D9",
")+	c #1C1A1B",
"!+	c #212020",
"~+	c #141313",
"{+	c #0F0E0F",
"]+	c #242323",
"^+	c #302F30",
"/+	c #A0A0A0",
"(+	c #C39D9C",
"_+	c #5C5C5C",
":+	c #1F1D1E",
"<+	c #181718",
"[+	c #0D0D0D",
"}+	c #131213",
"|+	c #100F0F",
"1+	c #252324",
"2+	c #1E1D1D",
"3+	c #C8ADAC",
"4+	c #C4C4C4",
"5+	c #434242",
"6+	c #C7C6C7",
"7+	c #EDEDED",
"8+	c #DDDCDD",
"9+	c #989798",
"0+	c #2D2B2C",
"a+	c #969696",
"b+	c #DBCFCF",
"c+	c #797979",
"d+	c #A5A5A5",
"e+	c #EEEEEE",
"f+	c #A6A6A6",
"g+	c #272626",
"h+	c #171617",
"i+	c #211F20",
"j+	c #BFBFBF",
"k+	c #EBEBEB",
"l+	c #5A5959",
"m+	c #262525",
"n+	c #D2D2D2",
"o+	c #9E9D9D",
"p+	c #9C9C9C",
"q+	c #454444",
"r+	c #DFDFDF",
"s+	c #828282",
"t+	c #B6B6B6",
"u+	c #686768",
"v+	c #DEDEDE",
"w+	c #E2E2E2",
"x+	c #515050",
"y+	c #B7B7B7",
"z+	c #252424",
"A+	c #4A494A",
"B+	c #929292",
"C+	c #535253",
"D+	c #737273",
"E+	c #EAEAEA",
"F+	c #E8E8E8",
"G+	c #909090",
"H+	c #DCDCDC",
"I+	c #1A1819",
"J+	c #3E3C3D",
"K+	c #2C2A2B",
"L+	c #A2A2A2",
"M+	c #201F1F",
"N+	c #555455",
"O+	c #E5E5E5",
"P+	c #5E5D5E",
"Q+	c #C6C6C6",
"R+	c #201E1F",
"S+	c #6B6A6B",
"T+	c #BCBCBC",
"U+	c #A3A2A3",
"V+	c #191818",
"W+	c #616161",
"X+	c #2B292A",
"Y+	c #1C1B1B",
"Z+	c #212021",
"`+	c #A1A1A1",
" @	c #1D1B1C",
".@	c #5D5D5D",
"+@	c #868686",
"@@	c #444444",
"#@	c #8D8D8D",
"$@	c #606060",
"%@	c #B9B9B9",
"&@	c #373737",
"*@	c #2D2C2C",
"=@	c #1F1E1E",
"-@	c #979797",
";@	c #9F9F9F",
">@	c #363536",
",@	c #282728",
"'@	c #8A8A8A",
")@	c #878787",
"!@	c #808080",
"                                                            .                   ",
"                                                            +                   ",
"                                                            @                   ",
"                                                            #                   ",
"                                                            $   %               ",
"                                                  &     * = - ; >   , '         ",
"                                                    ) ! ~ { ] ^ / ( _       :   ",
"                                                    < [ } | 1 2 3 4 5 6 7 8     ",
"                                          9 0 a b c d e f g h h i j k l         ",
"                                            m n o p q r s h h h h t u v         ",
"                                          w x y z A B C D E h h h F G H I       ",
"                                  J K L M N y O P Q R S T U V W X Y Z `  .      ",
"                      ..+.@.#.$.J %.&.&.*.=.-.;.>.,.'.).!.~.{.].^./.  (._.:.    ",
"                <.[.}.|.1.1.1.2.3.4.5.6.7.8.9.0.a.b.c.d.e.f.g.h.i.j.            ",
"            k.l.m.1.1.1.1.1.|.n.o.p.1.6.q.r.s.t.u.v.w.x.y.z.  A.B.C.D.          ",
"          E.F.1.1.1.1.1.1.1.G.H.I.J.K.1.L.M.N.5.O.P.Q.R.S.    T.U.  V.          ",
"        $.G.W.1.1.1.1.1.1.1.|.X.Y.J.Z.&.2.2.5.5.`. +.+++      @+#+              ",
"      $+6.%+m.1.1.1.1.1.1.1.1.W.&+*+=+5.F.N.5.=+*+-+;+        >+,+              ",
"    '+)+!+%.2.1.1.1.1.1.1.1.1.1.m.~+{+]+p.^+&.o.W./+          (+                ",
"    _+t.%.:+1.1.1.1.1.1.1.1.1.1.1.2.W.<+[+}+|+1+1.2+          3+                ",
"  4+!+)+%.6.1.1.1.1.1.1.1.1.1.1.1.1.5+6+7+8+9+1.1.0+a+        b+                ",
"  c+t.%.%.G.1.1.1.1.1.1.1.1.1.1.1.1.d+e+e+e+e+f+1.1.g+                          ",
"  h+i+%.%.1+1.1.1.1.1.1.1.1.1.1.1.1.j+e+e+e+e+k+l+1.m+ +                        ",
"n+}.O.%.%.1+1.1.1.1.1.1.1.1.1.1.1.1.o+e+e+e+e+e+p+1.0+f+                        ",
"P.]+%.%.%.6.1.1.1.1.1.1.1.1.1.1.1.1.q+r+e+e+e+e+p+1.1.s+                        ",
"t+W.%.%.%.:+1.1.1.1.1.1.1.1.1.1.1.1.1.u+v+e+e+w+x+1.1.c+                        ",
"y+z+%.%.%.%.2.1.1.1.1.1.1.1.1.1.1.1.1.1.A+B+p+C+1.1.1.c+                        ",
"4+W.%.%.%.%.m.1.1.1.1.1.1.1.1.1.1.1.1.D+E+F+G+1.1.1.1.@.                        ",
"H+6.I+%.%.%.i+1.1.1.1.1.1.1.1.1.1.1.1.E.e+e+F+J+1.1.K+L+                        ",
"  M+i+%.%.%.%.K+1.1.1.1.1.1.1.1.1.1.1.N+O+e+e+P+1.1.4.Q+                        ",
"  s+t.%.%.%.%.R+1.1.1.1.1.1.1.1.1.1.1.1.S+T+U+1.1.1.V+                          ",
"  k.1+O.%.%.%.%.=+1.1.1.1.1.1.1.1.1.1.1.1.1.1.1.1.K+$.                          ",
"    W+t.%.%.%.%.I+X+1.1.1.1.1.1.1.1.1.1.1.1.1.1.1.Y+                            ",
"    H+Z+R+%.%.%.%.O.K+1.1.1.1.1.1.1.1.1.1.1.1.1.m.a+                            ",
"      `+t. @%.%.%.%.I+m.1.1.1.1.1.1.1.1.1.1.1.0+.@                              ",
"        +@=+:+%.%.%.%.%.6.2.1.1.1.1.1.1.1.1.0+@@                                ",
"          #@z+1+%.%.%.%.%.I+G.K+1.1.1.1.1.|.$@                                  ",
"            %@&@=+G.O.%.%.%.%.%. @G.0+*@=@-@                                    ",
"                ;@>@4.,@=+W.W.t.m.W.2+'@                                        ",
"                    w+L+)@#.#.!@p+m                                             "};
