/* XPM */
static char * bomberman_xpm[] = {
"32 32 327 2",
"  	c #000000",
". 	c #151515",
"+ 	c #1E1E1E",
"@ 	c #252525",
"# 	c #303030",
"$ 	c #7E7E7E",
"% 	c #BFBFBF",
"& 	c #D0D0D0",
"* 	c #FFFFFF",
"= 	c #5E5E5E",
"- 	c #777777",
"; 	c #8E8E8E",
"> 	c #9F9F9F",
", 	c #B7B7B7",
"' 	c #D7D7D7",
") 	c #E1E1E1",
"! 	c #131313",
"~ 	c #383838",
"{ 	c #414141",
"] 	c #A6A6A6",
"^ 	c #C9C9C9",
"/ 	c #E7E7E7",
"( 	c #FCFCFC",
"_ 	c #363636",
": 	c #818181",
"< 	c #9E9E9E",
"[ 	c #D3D3D3",
"} 	c #EDEDED",
"| 	c #F7F7F7",
"1 	c #FEFFFF",
"2 	c #4B4B4B",
"3 	c #AFAFAF",
"4 	c #D8D8D8",
"5 	c #F1F1F1",
"6 	c #FDEFF4",
"7 	c #FCE1EA",
"8 	c #EEDDE2",
"9 	c #D8D7D7",
"0 	c #DED8DA",
"a 	c #FBE0E9",
"b 	c #FCDFE9",
"c 	c #FCE0E9",
"d 	c #DED9DA",
"e 	c #595858",
"f 	c #CBCBCB",
"g 	c #FDFEFE",
"h 	c #F9CEDE",
"i 	c #F997BB",
"j 	c #CE819D",
"k 	c #60585B",
"l 	c #8A6572",
"m 	c #F692B7",
"n 	c #FB8FB7",
"o 	c #FA90B7",
"p 	c #F792B7",
"q 	c #FDFDFE",
"r 	c #585858",
"s 	c #5A5B5B",
"t 	c #CFD0D0",
"u 	c #FBDAE5",
"v 	c #FBBDD3",
"w 	c #FAB0B7",
"x 	c #FBA39A",
"y 	c #CB867D",
"z 	c #2C1612",
"A 	c #774B45",
"B 	c #FAA498",
"C 	c #FDA396",
"D 	c #FDA496",
"E 	c #5B5B5B",
"F 	c #5A5A5A",
"G 	c #CECFCF",
"H 	c #FABDD2",
"I 	c #FA7AAD",
"J 	c #FC9F99",
"K 	c #FDB586",
"L 	c #CD9870",
"M 	c #302116",
"N 	c #78573F",
"O 	c #FBB988",
"P 	c #FEB884",
"Q 	c #FDB884",
"R 	c #FCB586",
"S 	c #FC9E99",
"T 	c #F9BED2",
"U 	c #CFCFCF",
"V 	c #FBBED3",
"W 	c #FC7CAE",
"X 	c #FC9F9A",
"Y 	c #FBB987",
"Z 	c #FEB883",
"` 	c #FABED3",
" .	c #FC7DAE",
"..	c #CD9871",
"+.	c #FCB587",
"@.	c #FB7DAE",
"#.	c #595959",
"$.	c #CCCDCD",
"%.	c #F9C0D4",
"&.	c #FB88B4",
"*.	c #FCA29F",
"=.	c #FCB289",
"-.	c #CC9572",
";.	c #785640",
">.	c #FBB68A",
",.	c #FEB586",
"'.	c #F9C1D4",
").	c #CDCDCD",
"!.	c #494949",
"~.	c #A9A9A9",
"{.	c #D1D1D1",
"].	c #ECDEE4",
"^.	c #FDE7F0",
"/.	c #F9BECD",
"(.	c #FA93A8",
"_.	c #CA7687",
":.	c #2E161A",
"<.	c #76424D",
"[.	c #F891A5",
"}.	c #FC8EA4",
"|.	c #FB8FA4",
"1.	c #FC8FA4",
"2.	c #F890A5",
"3.	c #77424D",
"4.	c #F9BFCD",
"5.	c #3B3B3B",
"6.	c #8D8D8D",
"7.	c #AEAEAE",
"8.	c #DCDCDC",
"9.	c #F5F4F5",
"0.	c #F4CEDC",
"a.	c #F9A7C4",
"b.	c #D498AD",
"c.	c #817C7E",
"d.	c #9D848C",
"e.	c #F7A5C2",
"f.	c #FBA3C2",
"g.	c #F8A5C2",
"h.	c #D497AD",
"i.	c #DDDCDC",
"j.	c #959595",
"k.	c #BCBCBC",
"l.	c #DEDEDE",
"m.	c #F6F5F6",
"n.	c #F9F9F9",
"o.	c #F9F8F8",
"p.	c #6D6D6D",
"q.	c #8A8A8A",
"r.	c #A5A5A5",
"s.	c #B8B8B8",
"t.	c #BABABA",
"u.	c #BABAB9",
"v.	c #B9BAB9",
"w.	c #636363",
"x.	c #7F7F7F",
"y.	c #565656",
"z.	c #001B3A",
"A.	c #004671",
"B.	c #004773",
"C.	c #004873",
"D.	c #004771",
"E.	c #E9E9E9",
"F.	c #A7A7A6",
"G.	c #383734",
"H.	c #0A5881",
"I.	c #0692DC",
"J.	c #0695DF",
"K.	c #0595E0",
"L.	c #0595DF",
"M.	c #0593DC",
"N.	c #0B5781",
"O.	c #383634",
"P.	c #404040",
"Q.	c #979797",
"R.	c #BBBBBB",
"S.	c #BDBDBD",
"T.	c #BFBEBE",
"U.	c #899EB4",
"V.	c #2E7CB3",
"W.	c #0A8ACE",
"X.	c #01A7FC",
"Y.	c #01A8FE",
"Z.	c #00A9FF",
"`.	c #00A8FE",
" +	c #0B8ACE",
".+	c #2F7CB3",
"++	c #FDFDFD",
"@+	c #ABABAB",
"#+	c #393837",
"$+	c #2F7DB3",
"%+	c #0E9FEF",
"&+	c #03A5F8",
"*+	c #00A8FD",
"=+	c #03A4F8",
"-+	c #0EA0EF",
";+	c #010001",
">+	c #060002",
",+	c #2B2829",
"'+	c #646363",
")+	c #7E7D7D",
"!+	c #4F4E4F",
"~+	c #0778B4",
"{+	c #03A3F6",
"]+	c #01A7FD",
"^+	c #03A7FC",
"/+	c #0BA8FB",
"(+	c #0878B4",
"_+	c #29121B",
":+	c #6D394D",
"<+	c #804159",
"[+	c #7F4058",
"}+	c #7F4159",
"|+	c #502837",
"1+	c #0E6A9B",
"2+	c #0B8FD4",
"3+	c #0B92DA",
"4+	c #389AD8",
"5+	c #79B4D2",
"6+	c #7AB4D2",
"7+	c #0E699B",
"8+	c #4F2837",
"9+	c #7F4259",
"0+	c #804058",
"a+	c #552A3A",
"b+	c #CE6B91",
"c+	c #F179A7",
"d+	c #F07BA8",
"e+	c #9B4F6C",
"f+	c #03263B",
"g+	c #033654",
"h+	c #023856",
"i+	c #003756",
"j+	c #726F56",
"k+	c #EDD255",
"l+	c #F0D252",
"m+	c #F0D352",
"n+	c #EED255",
"o+	c #033756",
"p+	c #9A506C",
"q+	c #CF6B91",
"r+	c #562A3A",
"s+	c #3A1D28",
"t+	c #934F69",
"u+	c #AC5979",
"v+	c #AC5B7A",
"w+	c #6E394D",
"x+	c #075A84",
"y+	c #047AB7",
"z+	c #057EBC",
"A+	c #077EBC",
"B+	c #4E8EBB",
"C+	c #A5BEB6",
"D+	c #A7BFB5",
"E+	c #A6BEB6",
"F+	c #057EBD",
"G+	c #6D3A4D",
"H+	c #AB5B7A",
"I+	c #AC5A79",
"J+	c #020001",
"K+	c #0B0305",
"L+	c #0F0407",
"M+	c #0E0407",
"N+	c #060203",
"O+	c #5188B4",
"P+	c #6AB5F4",
"Q+	c #55B3FA",
"R+	c #0FA8FC",
"S+	c #04A7FC",
"T+	c #0EA7FB",
"U+	c #ADB5BB",
"V+	c #E1EDF6",
"W+	c #B5DAF7",
"X+	c #1CA8FB",
"Y+	c #00A5FB",
"Z+	c #04A8FC",
"`+	c #BFBFBE",
" @	c #F9F9FA",
".@	c #E0EFFA",
"+@	c #A8D1FA",
"@@	c #95C3F1",
"#@	c #0684C7",
"$@	c #0784C6",
"%@	c #BFBEBF",
"&@	c #B6B6B6",
"*@	c #EFEFEF",
"=@	c #F4F5F4",
"-@	c #F3F6F4",
";@	c #DDDFDD",
">@	c #DDDFDE",
",@	c #F3F6F5",
"'@	c #F4F5F5",
")@	c #010000",
"!@	c #6F7171",
"~@	c #959696",
"{@	c #989A99",
"]@	c #989A98",
"^@	c #8A8B89",
"/@	c #8A8A8B",
"(@	c #743E52",
"_@	c #954E6A",
":@	c #934A67",
"<@	c #924865",
"[@	c #924765",
"}@	c #82415A",
"|@	c #81425A",
"1@	c #743D52",
"2@	c #BA6284",
"3@	c #EE79A6",
"4@	c #EE77A5",
"5@	c #EE78A5",
"6@	c #D46E96",
"7@	c #030000",
"8@	c #020000",
"9@	c #D36F96",
"0@	c #BB6184",
"a@	c #793F56",
"b@	c #9C506D",
"c@	c #9C4F6C",
"d@	c #8A4862",
"e@	c #8A4962",
"f@	c #7A3F56",
"g@	c #1D0C12",
"h@	c #29111A",
"i@	c #28111A",
"j@	c #230E16",
"k@	c #230F16",
"l@	c #1D0B12",
"            . + @ # $ % & * * * * * * & % $ # @ + .             ",
"            = - ; > , ' ) * * * * * * ) ' , > ; - =             ",
"      ! ~ { ] ^ / ( * * * * * * * * * * * * ( / ^ ] { ~ !       ",
"      _ : < [ } | 1 * * * * 1 1 * * * * * * 1 | } [ < : _       ",
"      2 3 4 5 * 6 7 8 9 0 a b b b c a d 9 8 7 6 * 5 4 3 2       ",
"      e f ( g * h i j k l m n o o o p l k j i h * q ( f r       ",
"      s t * u v w x y z A B C D D C B A z y x w v u * & E       ",
"      F G * H I J K L M N O P Q Q P O N M L R S I T * U F       ",
"      F G * V W X K L M N Y Z Q Q Z Y N M L R X W ` * U F       ",
"      F G * V  .X K ..M N Y Z Q Q Z Y N M ..+.X @.` * U F       ",
"      #.$.q %.&.*.=.-.M ;.>.,.K K ,.>.;.M -.=.*.&.'.q ).#.      ",
"      !.~.{.].^./.(._.:.<.[.}.}.|.1.2.3.:._.(.4.^.].{.~.!.      ",
"      5.6.7.8.9.0.a.b.c.d.e.f.f.f.f.g.d.c.h.a.0.9.i.7.6.5.      ",
"            j.k.l.m.n.n.n.o.o.o.o.o.o.n.n.n.m.l.k.j.            ",
"            p.q.r.s.t.u.u.u.v.v.u.u.u.u.u.t.s.r.q.p.            ",
"            w.x.y.  z.A.B.B.B.B.B.B.B.C.D.z.  y.x.w.            ",
"            s.E.F.G.H.I.J.K.K.K.K.K.K.L.M.N.O.F.E.s.            ",
"      P.Q.R.S.T.U.V.W.X.Y.Z.Z.Z.Z.Z.Z.`.X. +.+U.T.S.R.Q.P.      ",
"      r f ++@+#+$+%+&+*+*+*+*+*+*+*+*+*+*+=+-+$+#+@+++f r       ",
"  ;+>+,+'+)+!+  ~+{+]+X.^+/+/+/+/+/+/+^+X.]+{+(+  !+)+'+,+>+;+  ",
"  _+:+<+[+}+|+  1+2+3+3+4+5+6+6+6+6+5+4+3+3+2+7+  8+9+0+<+:+_+  ",
"  a+b+c+c+d+e+  f+g+h+i+j+k+l+m+m+l+n+j+i+o+g+f+  p+d+c+c+q+r+  ",
"  s+t+u+u+v+w+  x+y+z+A+B+C+D+D+D+D+E+B+A+F+y+x+  G+H+u+I+t+s+  ",
"  J+K+L+M+M+N+  O+P+Q+R+S+T+T+T+T+T+T+S+R+Q+P+O+  N+M+M+L+K+J+  ",
"                U+V+W+X+Y+Z+Z+Z+Z+Z+Z+Y+X+W+V+U+                ",
"                `+ @.@+@@@#@$@$@$@$@#@@@+@.@ @%@                ",
"                &@*@=@-@;@            >@,@'@*@&@                ",
"          )@    !@~@{@]@^@            /@{@{@~@!@    )@          ",
"            (@_@:@<@[@<@}@)@        )@|@[@[@<@:@_@1@            ",
"            2@3@4@5@5@5@6@7@        8@9@5@5@5@5@3@0@            ",
"            a@b@c@c@e+c@d@)@        )@e@c@c@c@c@b@f@            ",
"            g@h@i@i@i@i@j@            k@h@i@i@i@i@l@            "};
