/* XPM */
static char * bomberman_xpm[] = {
"44 44 333 2",
"  	c #000000",
". 	c #8E8E8E",
"+ 	c #8D8D8D",
"@ 	c #969696",
"# 	c #A7A7A7",
"$ 	c #A8A8A8",
"% 	c #DEDEDE",
"& 	c #DFDFDF",
"* 	c #1A1A1A",
"= 	c #747474",
"- 	c #C0C0C0",
"; 	c #C1C1C1",
"> 	c #FEFEFE",
", 	c #FFFFFF",
"' 	c #838383",
") 	c #C5C5C5",
"! 	c #C4C4C4",
"~ 	c #868686",
"{ 	c #858585",
"] 	c #A5A5A5",
"^ 	c #B2B2B2",
"/ 	c #C2C2C2",
"( 	c #D6D6D6",
"_ 	c #101010",
": 	c #BFBFBF",
"< 	c #EDEDED",
"[ 	c #E2E2E2",
"} 	c #C8C8C8",
"| 	c #595959",
"1 	c #5B5B5B",
"2 	c #CDCDCD",
"3 	c #CECECE",
"4 	c #F0F0F0",
"5 	c #9C9C9C",
"6 	c #FEFFFF",
"7 	c #FFFEFF",
"8 	c #FFFDFE",
"9 	c #999999",
"0 	c #FAFAFA",
"a 	c #F4BCD2",
"b 	c #F890B8",
"c 	c #CD839F",
"d 	c #545353",
"e 	c #535353",
"f 	c #585455",
"g 	c #F093B7",
"h 	c #F98FB8",
"i 	c #F990B8",
"j 	c #F192B7",
"k 	c #FFFDFF",
"l 	c #F7B3CD",
"m 	c #FE7EAF",
"n 	c #FE7EB0",
"o 	c #CB6E92",
"p 	c #020000",
"q 	c #000100",
"r 	c #1B090F",
"s 	c #F482AE",
"t 	c #FF7DB0",
"u 	c #FD7EAF",
"v 	c #F582AE",
"w 	c #F7B4CD",
"x 	c #9B9C9C",
"y 	c #FFFCFD",
"z 	c #F5BCD2",
"A 	c #F9B9D2",
"B 	c #F9B9D0",
"C 	c #F8ABAB",
"D 	c #FDA596",
"E 	c #FCA595",
"F 	c #CC8C81",
"G 	c #1A0D0C",
"H 	c #F4A699",
"I 	c #FCA594",
"J 	c #FCA495",
"K 	c #FBA595",
"L 	c #F5A699",
"M 	c #F7ABAB",
"N 	c #F9BAD0",
"O 	c #F5BCD1",
"P 	c #FEFCFE",
"Q 	c #FFF9FD",
"R 	c #F684B0",
"S 	c #FE7EB1",
"T 	c #FE7FAE",
"U 	c #FBA792",
"V 	c #FFB884",
"W 	c #FDB883",
"X 	c #CE9B74",
"Y 	c #1A100B",
"Z 	c #F7B889",
"` 	c #FEB881",
" .	c #FEB882",
"..	c #FDB983",
"+.	c #FEB982",
"@.	c #FE7DB1",
"#.	c #FEFAFD",
"$.	c #FFFAFD",
"%.	c #F585B0",
"&.	c #FD7EB1",
"*.	c #FD7FAE",
"=.	c #FBA793",
"-.	c #FFB785",
";.	c #FDB885",
">.	c #CE9B76",
",.	c #F7B98B",
"'.	c #FEB883",
").	c #FEB884",
"!.	c #FFB885",
"~.	c #F7B98A",
"{.	c #FDB884",
"].	c #FDB985",
"^.	c #CE9B75",
"/.	c #FDB984",
"(.	c #FEB983",
"_.	c #F685B0",
":.	c #F485B0",
"<.	c #FC7FB1",
"[.	c #FC80AE",
"}.	c #FBA794",
"|.	c #FFB786",
"1.	c #FCB785",
"2.	c #CE9A76",
"3.	c #F6B78C",
"4.	c #FDB783",
"5.	c #FEB785",
"6.	c #FEB783",
"7.	c #7C7D7D",
"8.	c #CECDCE",
"9.	c #F9EBF2",
"0.	c #FBEAF2",
"a.	c #F6B0C3",
"b.	c #FC8BA7",
"c.	c #CB788C",
"d.	c #1B0A0E",
"e.	c #F38EA7",
"f.	c #FC8BA6",
"g.	c #FD8BA6",
"h.	c #FC8CA6",
"i.	c #F58EA7",
"j.	c #F6B1C3",
"k.	c #FBEBF2",
"l.	c #7D7D7D",
"m.	c #F6B3CE",
"n.	c #CB6E93",
"o.	c #F382B0",
"p.	c #F582B0",
"q.	c #F6B4CE",
"r.	c #FEFDFE",
"s.	c #DADADA",
"t.	c #B3B3B3",
"u.	c #DFDEDF",
"v.	c #EED5DE",
"w.	c #F9D1DF",
"x.	c #E7CED6",
"y.	c #F6D1DE",
"z.	c #FAD0DF",
"A.	c #FAD1DF",
"B.	c #F6D2DE",
"C.	c #ECECEC",
"D.	c #E1E1E1",
"E.	c #DEDFDF",
"F.	c #010001",
"G.	c #000001",
"H.	c #1D1D1D",
"I.	c #060606",
"J.	c #020202",
"K.	c #000205",
"L.	c #000511",
"M.	c #000512",
"N.	c #000612",
"O.	c #000611",
"P.	c #010000",
"Q.	c #000102",
"R.	c #145E85",
"S.	c #0FA4F3",
"T.	c #0DA5F4",
"U.	c #0DA5F5",
"V.	c #0EA5F5",
"W.	c #0DA4F5",
"X.	c #0CA6F4",
"Y.	c #0EA4F3",
"Z.	c #145D85",
"`.	c #000203",
" +	c #0F5F89",
".+	c #03A6FA",
"++	c #02A7FB",
"@+	c #01A7FC",
"#+	c #02A6FD",
"$+	c #01A8FB",
"%+	c #04A6FA",
"&+	c #105F89",
"*+	c #BDBDBD",
"=+	c #AEAEAE",
"-+	c #568BB5",
";+	c #0C8FD4",
">+	c #0D8ED1",
",+	c #0A97E2",
"'+	c #00A8FD",
")+	c #00A8FE",
"!+	c #0B96E2",
"~+	c #0D8FD1",
"{+	c #0B8FD4",
"]+	c #1187C5",
"^+	c #01A7FD",
"/+	c #01A7FE",
"(+	c #01A8FD",
"_+	c #777777",
":+	c #1087C7",
"<+	c #00A8FF",
"[+	c #00A7FE",
"}+	c #00A8FC",
"|+	c #00A7FF",
"1+	c #1187C7",
"2+	c #03A6FB",
"3+	c #01A8FC",
"4+	c #1286C5",
"5+	c #A2959A",
"6+	c #6C3E50",
"7+	c #6E3E50",
"8+	c #6D3E50",
"9+	c #6A3F4F",
"0+	c #1679AD",
"a+	c #0B96DF",
"b+	c #0D95DD",
"c+	c #0C96E0",
"d+	c #0D95DE",
"e+	c #1096DD",
"f+	c #5EB1D8",
"g+	c #60B2D6",
"h+	c #0D95E0",
"i+	c #0C96DD",
"j+	c #0B97DF",
"k+	c #693F4F",
"l+	c #A3959A",
"m+	c #CA6F92",
"n+	c #FB80AF",
"o+	c #FD7FAF",
"p+	c #FC7FAF",
"q+	c #F483AE",
"r+	c #1C090F",
"s+	c #191503",
"t+	c #F4D521",
"u+	c #FBD803",
"v+	c #FBD706",
"w+	c #FBD804",
"x+	c #FBD705",
"y+	c #F283AE",
"z+	c #FB7FAF",
"A+	c #C96F92",
"B+	c #F981AF",
"C+	c #FA80AF",
"D+	c #191504",
"E+	c #F2D62A",
"F+	c #F9D813",
"G+	c #F8D716",
"H+	c #F8D815",
"I+	c #F9D715",
"J+	c #F2D62B",
"K+	c #181504",
"L+	c #F184AE",
"M+	c #FA81AF",
"N+	c #CA6E92",
"O+	c #9F999B",
"P+	c #4A2A36",
"Q+	c #4B2A36",
"R+	c #482A36",
"S+	c #1780B6",
"T+	c #0D9FEB",
"U+	c #0F9EE8",
"V+	c #0D9EEC",
"W+	c #0D9EEB",
"X+	c #0F9EEA",
"Y+	c #40ABE3",
"Z+	c #41ACE2",
"`+	c #3FABE3",
" @	c #0E9EEA",
".@	c #0D9FEC",
"+@	c #482B36",
"@@	c #1187C4",
"#@	c #03A7F9",
"$@	c #1087C4",
"%@	c #CFCFCF",
"&@	c #A6BCCA",
"*@	c #C7E1F7",
"=@	c #C4E1F6",
"-@	c #9ACFF4",
";@	c #02A7FD",
">@	c #D5D5D5",
",@	c #FDFEFF",
"'@	c #C8E5F5",
")@	c #03A7FB",
"!@	c #02A7FC",
"~@	c #D5D5D6",
"{@	c #D6D5D4",
"]@	c #FFFFFE",
"^@	c #DCEFF7",
"/@	c #97CCF4",
"(@	c #97CCF5",
"_@	c #96CCF6",
":@	c #1485C4",
"<@	c #0D84C3",
"[@	c #96CBF5",
"}@	c #97CDF5",
"|@	c #DDEFF7",
"1@	c #D6D5D6",
"2@	c #FDFFFF",
"3@	c #FCFEFE",
"4@	c #191A1A",
"5@	c #F5F5F5",
"6@	c #F5F5F4",
"7@	c #F5F5F3",
"8@	c #F4F4F2",
"9@	c #181818",
"0@	c #181819",
"a@	c #F4F3F4",
"b@	c #F5F4F5",
"c@	c #1B1A1A",
"d@	c #D97A9F",
"e@	c #E1769F",
"f@	c #E2769F",
"g@	c #E1779F",
"h@	c #E0779F",
"i@	c #DA799E",
"j@	c #18070D",
"k@	c #17070D",
"l@	c #D97A9E",
"m@	c #DA7A9F",
"n@	c #A35D78",
"o@	c #AA5A79",
"p@	c #A95B79",
"q@	c #A95A79",
"r@	c #A45C78",
"              . + + + + + @ # # $ % & & & & & & & & % $ # # @ + + + + + .               ",
"              *           = - - ; > , , , , , , , , > ; - - =           *               ",
"      ' ) ) ! ~ { { ] ^ ^ / & & & , , , , , , , , , , & & & / ^ ^ ] { { ~ ! ) ) '       ",
"      (     _ : - - < , , , , , , , , , , , , , , , , , , , , , , < - - : _     (       ",
"  [ [ } | | 1 2 3 3 4 , , , , , , , , , , , , , , , , , , , , , , 4 3 3 2 1 | | } [ [   ",
"5     = - - ; > , , , , , , , , , 6 6 6 6 6 6 , , , , , , , , , , , , , > ; - - =     5 ",
"5     = - - ; > , , 7 > > 7 , , , 8 8 8 8 8 8 8 > > > , , , 7 > > 7 , , > ; - - =     5 ",
"5     9 0 0 0 6 , 7 a b b c d e f g b h h h h b b i j f e d c b b a 7 7 7 0 0 0 9     5 ",
"5     5 , , , 7 7 k l m n o p q r s m t n m n u n n v r q p o m n w 7 7 7 , , , 5     5 ",
"5     x 6 , y z A B C D E F p q G H I J K I I K E I L G q p F K D M N A O P , , 5     5 ",
"5     x 6 , Q R S T U V W X p q Y Z `  ...+.+... .` Z Y q p X W V U T @.R #., , 5     5 ",
"5     x 6 , $.%.&.*.=.-.;.>.p q Y ,.'.).;.).).;.).'.,.Y q p >.;.-.=.*.&.%.#., , 5     5 ",
"5     x 6 , Q R S *.=.!.;.>.p q Y ~.'.'.{.).).{.'.'.~.Y q p >.].!.=.*.S R #., , 5     5 ",
"5     x 6 , Q R S *.=.!.;.>.p q Y ~.'.'.{.).).{.'.'.~.Y q p >.;.!.=.*.S R #., , 5     5 ",
"5     x 6 , Q R S *.=.V {.^.p q Y ,. .'./.(.(./.'. .,.Y q p ^.{.V =.*.S _.#., , 5     5 ",
"5     x 6 , $.:.<.[.}.|.1.2.p q Y 3.4.5.;.).).;.5.6.3.Y q p 2.1.|.}.[.<.:.#., , 5     5 ",
"5     7.3 3 8.9.0.0.a.b.b.c.p q d.e.f.g.f.f.f.h.f.g.i.d.q p c.f.b.j.k.k.9.8.3 3 l.    5 ",
"5     = - - ; > 7 k m.&.&.n.p q r o.&.S &.&.&.&.&.S p.r q p n.&.&.q.7 7 r.; - - =     5 ",
"s.) ) t.{ { ~ % & u.v.w.w.x.) ) ) y.z.z.z.z.z.z.w.A.B.) ) ) x.w.w.v.u.u.% ~ { { t.) ) s.",
"      (     _ : - - C., , , , , , , , , , , , , , , , , , , , , , C.- - : _     (       ",
"      D.+ + + # # # 3 & & & & & & E.E.E.E.E.E.E.& & & & & & & & & 3 # # # + + + D.      ",
"              *             F.F.F.G.G.G.G.G.G.G.G.G.G.G.G.G.            *               ",
"              H.I.I.J.    K.L.M.M.N.N.N.N.N.N.N.N.N.N.N.O.O.K.    J.I.I.H.              ",
"      (     H.> , , 5 P.Q.R.S.T.U.V.V.V.V.V.V.V.V.V.V.W.X.Y.Z.Q.P.5 , , > H.I.I.(       ",
"      (     * > , , 5 Q.`. +.+++@+@+@+@+@+@+@+@+@+@+@+#+$+%+&+`.Q.5 , , > *     (       ",
"*++ + =+& & % . + + -+;+>+,+'+)+)+)+)+)+)+)+)+)+)+)+)+)+)+'+!+~+{+-++ + . % & & =++ + *+",
"5     5 , , > *     ]+^+++)+'+'+'+'+'+'+'+'+'+'+'+'+'+'+'+'+/+++(+]+    * > , , 5     5 ",
"5     _+) ) !       :+)+^+<+[+[+[+}+}+}+}+}+}+}+}+}+}+[+[+[+|+'+)+1+      ! ) ) _+    5 ",
"5                   ]+^+2+'+3+3+3+3+3+3+3+3+3+3+3+3+3+3+3+3+^+++(+4+                  5 ",
"5+6+7+8+8+8+9+      0+a+b+c+d+d+e+f+g+g+g+g+g+g+g+g+f+e+d+d+h+i+j+0+      k+8+8+6+8+8+l+",
"m+n+o+p+p+p+q+r+                s+t+u+v+w+x+x+w+v+u+t+s+                r y+p+o+n+p+z+o ",
"A+B+p+C+n+n+y+r                 D+E+F+G+H+I+I+H+G+F+J+K+                r L+n+p+M+n+C+N+",
"O+P+Q+Q+Q+Q+R+      S+T+U+V+W+W+X+Y+Z+Z+Z+Z+Z+Z+Z+Z+`+ @W+W+.@U+T+S+      +@Q+Q+P+Q+Q+O+",
"5                   @@3+#@(+@+@+@+@+@+@+@+@+@+@+@+@+@+@+@+@+(+#@3+$@                  5 ",
"D.%@%@%@%@%@3       &@*@=@-@;@/+/+^+@+@+@+@+^+@+@+@+^+/+)+;@-@=@*@&@      3 %@%@%@%@%@D.",
"              *     >@7 ,@'@)@!@^+'+'+'+'+'+'+'+'+'+'+^+3+)@'@,@7 ~@    *               ",
"              *     {@]@6 ^@/@(@_@:@<@<@<@<@<@<@<@<@:@[@}@/@|@6 7 1@    *               ",
"              *     ( , , 6 2@2@3@4@                4@3@2@2@6 , , (     *               ",
"              *     2 5@5@6@7@7@8@9@                0@a@b@b@5@5@5@2     *               ",
"              *                                                         *               ",
"              c@                                                        c@              ",
"              d@e@f@e@g@e@h@e@f@i@j@                k@l@e@f@e@g@e@h@e@f@m@              ",
"            r+q+u m m u m u m m v r+                r+q+u m m u m u m m v r+            ",
"              n@o@o@p@p@q@p@q@o@r@                    n@o@o@p@p@q@p@q@o@r@              "};
