/* XPM */
static char * bomb_xpm[] = {
"40 40 244 2",
"  	c #E6E6E6",
". 	c #C2C2C2",
"+ 	c #010101",
"@ 	c #BFBFBF",
"# 	c #C0C0C0",
"$ 	c #280405",
"% 	c #B1ADAD",
"& 	c #AAAAAA",
"* 	c #650F11",
"= 	c #620E10",
"- 	c #310507",
"; 	c #B6B2B2",
"> 	c #2C0507",
", 	c #350608",
"' 	c #871A19",
") 	c #831917",
"! 	c #691214",
"~ 	c #560D0F",
"{ 	c #ABABAB",
"] 	c #260405",
"^ 	c #4D0C0F",
"/ 	c #3E090B",
"( 	c #40080A",
"_ 	c #4E0F0F",
": 	c #9A351B",
"< 	c #933019",
"[ 	c #82171A",
"} 	c #6A1214",
"| 	c #3D080A",
"1 	c #260506",
"2 	c #CECECE",
"3 	c #CDCDCD",
"4 	c #CBCBCB",
"5 	c #B5B5B5",
"6 	c #330506",
"7 	c #771417",
"8 	c #982E1E",
"9 	c #7F3414",
"0 	c #7D3215",
"a 	c #C76221",
"b 	c #BE5E1D",
"c 	c #B84A22",
"d 	c #AC401F",
"e 	c #752215",
"f 	c #727273",
"g 	c #5F4142",
"h 	c #230405",
"i 	c #120303",
"j 	c #520A0C",
"k 	c #520A0D",
"l 	c #490A0C",
"m 	c #4E0D0F",
"n 	c #AB3925",
"o 	c #CD6B22",
"p 	c #D79016",
"q 	c #F2A41A",
"r 	c #EFA418",
"s 	c #ED9B1A",
"t 	c #D17121",
"u 	c #9A2F1E",
"v 	c #872018",
"w 	c #460D0B",
"x 	c #540F12",
"y 	c #280607",
"z 	c #9B9B9B",
"A 	c #140303",
"B 	c #5C0D10",
"C 	c #5C0D0F",
"D 	c #5C0E11",
"E 	c #6B1212",
"F 	c #90321B",
"G 	c #BB6521",
"H 	c #ECA41A",
"I 	c #FFCA06",
"J 	c #FECD04",
"K 	c #FECD05",
"L 	c #FECC05",
"M 	c #DB9819",
"N 	c #B44723",
"O 	c #9E261D",
"P 	c #4F100D",
"Q 	c #A3A3A3",
"R 	c #B6B6B6",
"S 	c #B0B0B0",
"T 	c #583D2D",
"U 	c #B98263",
"V 	c #CF8964",
"W 	c #CA8C51",
"X 	c #CE8E21",
"Y 	c #F5B610",
"Z 	c #FECD03",
"` 	c #FFCD04",
" .	c #F9BC11",
"..	c #DB8723",
"+.	c #9C3C21",
"@.	c #460A0B",
"#.	c #ACACAC",
"$.	c #9D9D9D",
"%.	c #514333",
"&.	c #AB906C",
"*.	c #CDAB7E",
"=.	c #C59B73",
"-.	c #A6614A",
";.	c #9D3B23",
">.	c #D89514",
",.	c #FDCA07",
"'.	c #FCC40F",
").	c #F7B318",
"!.	c #BF6221",
"~.	c #530A0D",
"{.	c #A9A9A9",
"].	c #000000",
"^.	c #4E4335",
"/.	c #AE926F",
"(.	c #C1A379",
"_.	c #8C7658",
":.	c #7E5D46",
"<.	c #6B1216",
"[.	c #9E501F",
"}.	c #E4A216",
"|.	c #F4B313",
"1.	c #F5B614",
"2.	c #FABE11",
"3.	c #CB971C",
"4.	c #B67F19",
"5.	c #B64F22",
"6.	c #A62A20",
"7.	c #4F110B",
"8.	c #9A9A9A",
"9.	c #CACACA",
"0.	c #A8A8A8",
"a.	c #565656",
"b.	c #6B5C47",
"c.	c #C3A37A",
"d.	c #79664C",
"e.	c #757472",
"f.	c #550F11",
"g.	c #B14721",
"h.	c #E28023",
"i.	c #C4761E",
"j.	c #D09918",
"k.	c #F4A81C",
"l.	c #BE6121",
"m.	c #6F1215",
"n.	c #741C16",
"o.	c #822118",
"p.	c #3E0C07",
"q.	c #626262",
"r.	c #181718",
"s.	c #46403A",
"t.	c #AA8F6B",
"u.	c #B49770",
"v.	c #BB9E76",
"w.	c #555555",
"x.	c #8B8181",
"y.	c #641215",
"z.	c #A4471F",
"A.	c #BD5C25",
"B.	c #5F2E14",
"C.	c #B5781B",
"D.	c #BD7920",
"E.	c #B23D25",
"F.	c #7B1917",
"G.	c #B1B2B2",
"H.	c #C7C7C7",
"I.	c #5C5C5C",
"J.	c #181818",
"K.	c #786650",
"L.	c #726048",
"M.	c #695945",
"N.	c #240404",
"O.	c #651315",
"P.	c #8B321E",
"Q.	c #673514",
"R.	c #A2451C",
"S.	c #8F3D18",
"T.	c #55120E",
"U.	c #83191B",
"V.	c #8A7676",
"W.	c #595858",
"X.	c #591012",
"Y.	c #711415",
"Z.	c #9D9C9C",
"`.	c #8A1C1B",
" +	c #7A1816",
".+	c #3F070A",
"++	c #280505",
"@+	c #CFCFCF",
"#+	c #575757",
"$+	c #250405",
"%+	c #A09A9A",
"&+	c #BEBEBE",
"*+	c #801519",
"=+	c #711214",
"-+	c #B8B8B8",
";+	c #595959",
">+	c #181717",
",+	c #747474",
"'+	c #7E1619",
")+	c #CCCCCC",
"!+	c #171617",
"~+	c #A1A1A1",
"{+	c #6E1215",
"]+	c #600F12",
"^+	c #E3E3E3",
"/+	c #E2E2E2",
"(+	c #A5A5A5",
"_+	c #5F0E10",
":+	c #530B0D",
"<+	c #EFEFEF",
"[+	c #EDEDED",
"}+	c #D4D4D4",
"|+	c #AFB0B0",
"1+	c #C8C8C8",
"2+	c #D5D4D5",
"3+	c #ECEBEB",
"4+	c #EEEEEE",
"5+	c #555455",
"6+	c #D5D5D5",
"7+	c #6B6B6B",
"8+	c #EAEAEA",
"9+	c #DBDADB",
"0+	c #C4C4C4",
"a+	c #5F5F5F",
"b+	c #949494",
"c+	c #DFDFDF",
"d+	c #717170",
"e+	c #EFEFEE",
"f+	c #D9D9D8",
"g+	c #525051",
"h+	c #D9D9D9",
"i+	c #D8D8D8",
"j+	c #C9C9C9",
"k+	c #B7B7B7",
"l+	c #636363",
"m+	c #808080",
"n+	c #686868",
"o+	c #7F7F7F",
"p+	c #7E7E7E",
"q+	c #606060",
"r+	c #818181",
"s+	c #5E5E5E",
"t+	c #7C7C7C",
"u+	c #4F4F4F",
"                                                                                ",
"                                                        . + @                   ",
"                                                        . + #                   ",
"                                                        . $ %                   ",
"                                                        & * = - ;               ",
"                                                    & > , ' ) ! ~ {             ",
"                                                ] ^ / ( _ : < [ } | 1 .   2 3   ",
"                                      4 4 4 4 5 6 7 8 9 0 a b c d e , f g h +   ",
"                                      i j j k l + m n o p q r s t u v w x y z   ",
"                                      A B C C D E F G H I J K L M N O P Q R     ",
"                                      . . S + T U V W X Y Z ` K  ...+.@.Q       ",
"                                    #.#.#.$.%.&.*.=.-.;.>.` K ,.'.).!.~.+       ",
"                        @ & & & & {.].].].^./.(._.:.<.[.}.|.1.2.3.4.5.6.7.8.    ",
"                  9.0.0.a.].].].].].].].].b.c.d.e.0.f.g.h.i.j.k.l.m.n.o.p.+     ",
"              4 $.q.].].].].].].r.].].s.t.u.v.].w.x.y.z.A.B.C.D.E.F.G.          ",
"            H.I.].].].].].].].].].J.].].K.L.M.].].N.O.P.Q.+ R.S.T.U.V.          ",
"          H.W.].].].].].].].].].].J.].].].].].].].].X.Y.Z.{ `. ++ .+++          ",
"        @+#+].].].].].].].].].].].].].].].].].].].].$+%+  &+*+=+-+              ",
"        ;+].].].].].].].].].].].].].].].].].].>+].].,+    &+'+m.)+              ",
"      9.].].].].].].].].].].].].].].].].].].!+].].].~+    &+{+]+)+              ",
"    @+].].].].].].].].].].].].].].].].^+^+/+@+].].].(+    &+_+:+)+              ",
"    4 ].].].].].].].].].].].].].].].].<+[+[+[+}+].].].{     |+1+                ",
"    4 ].].].].].].].].].].].].].].].].[+[+<+[+2+].].].&                         ",
"    H.].].].].].].].].].].].].].].].].3+4+[+<+<+4 ].].&                         ",
"  3 ].].].].].].].].].].].].].].].].].5+/+[+<+6+].].].&                         ",
"  3 ].].].].].].].].].].].].].].].].].].7+8+9+0+].].].&                         ",
"    a+].].].].].].].].].].].].].].].].].b+c+d+].].].].&                         ",
"    4 ].].].].].].].].].].].].].].].].W.<+e+f+].].].].&                         ",
"    4 ].].].].].].].].].].].].].].].].g+h+[+i+].].].].&                         ",
"    4 ].].].].].].].].].].].].].].].].].I.j+k+].].].l+4                         ",
"      m+].].].].].].].].].].].].].].].].].].].].].].(+                          ",
"      9.].].].].].].].].].].].].].].].].].].].].].n+2                           ",
"        o+].].].].].].].].].].].].].].].].].].].].z                             ",
"          p+].].].].].].].].].].].].].].].].].].q+@+                            ",
"            o+].].].].].].].].].].].].].].].].#+)+                              ",
"              r+].].].].].].].].].].].].].].s+                                  ",
"                j+t+].].].].].].].].].].u+j+                                    ",
"                    4 l+>+].].].].].4 4                                         ",
"                        2 2 2 2 2 2                                             ",
"                                                                                "};
