/* XPM */
static char * char67_xpm[] = {
"22 30 3 1",
" 	c #000000",
".	c #E6E6E6",
"+	c #1B1B1B",
"                      ",
"                      ",
"                      ",
"       .........      ",
"      ............    ",
"     ..............   ",
"    .....      .....  ",
"   ....         ....  ",
"   ...           .... ",
"  ....           .... ",
"  ...                 ",
"  ...                 ",
" ....                 ",
" ....                 ",
" ....                 ",
" ....                 ",
" ....                 ",
" ....                 ",
" ....                 ",
" ....                 ",
" ....                 ",
"  ....                ",
"  ....                ",
"  .....          .... ",
"   ....         ..... ",
"   .....       .....  ",
"    ................  ",
"     ..............   ",
"      ..........+.    ",
"       .........      "};
