/* XPM */
static char * char44_xpm[] = {
"19 39 15 1",
" 	c #000000",
".	c #E6E6E6",
"+	c #000000",
"@	c #121212",
"#	c #0c0c0c",
"$	c #e4e4e4",
"%	c #cacaca",
"&	c #050505",
"*	c #aeaeae",
"=	c #939393",
"-	c #636363",
";	c #797979",
">	c #393939",
",	c #272727",
"'	c #4d4d4d",
"                   ",
"                   ",
"                   ",
"                   ",
"                   ",
"                   ",
"                   ",
"                   ",
"                   ",
"                   ",
"                   ",
"                   ",
"                   ",
"                   ",
"                   ",
"                   ",
"                   ",
"                   ",
"                   ",
"                   ",
"                   ",
"                   ",
"                   ",
"       ;.....;     ",
"       ;.....;     ",
"       ;.....;     ",
"       ;.....;     ",
"       ;.....;     ",
"       =.....-     ",
"       $....%      ",
"      ,.....'      ",
"      '....*       ",
"      =....>       ",
"      ....*        ",
"     ,....>        ",
"     '...*         ",
"     =...>         ",
"    #...*          ",
"                   "};
