/* XPM */
static char * char49_xpm[] = {
"22 30 2 1",
" 	c #000000",
".	c #E6E6E6",
"                      ",
"         ....         ",
"       ......         ",
"      .......         ",
"     ........         ",
"    .........         ",
"    .........         ",
"     ... ....         ",
"     ..  ....         ",
"         ....         ",
"         ....         ",
"         ....         ",
"         ....         ",
"         ....         ",
"         ....         ",
"         ....         ",
"         ....         ",
"         ....         ",
"         ....         ",
"         ....         ",
"         ....         ",
"         ....         ",
"         ....         ",
"         ....         ",
"         ....         ",
"    ..............    ",
"    ..............    ",
"    ..............    ",
"    ..............    ",
"                      "};
