/* XPM */
static char * char65_xpm[] = {
"40 40 4 1",
" 	c #000000",
".	c #ffffef",
"+	c #ffffff",
"@	c #fffeff",
"                                        ",
"                                        ",
"                                        ",
"                                        ",
"                                        ",
"                                        ",
"                .+++++++                ",
"                 ++++++                 ",
"                @++++++                 ",
"                .+++++++                ",
"                ++++++++                ",
"               @++++++++                ",
"               ++++@+++++               ",
"               ++++ @++++               ",
"              @++++  ++++               ",
"              ++++@  +++++              ",
"              ++++   @++++              ",
"             ++++.    ++++              ",
"             +++++    +++++             ",
"             ++++     @++++             ",
"            @++++      ++++@            ",
"            +++++      +++++            ",
"            ++++++++++++++++            ",
"           .++++++++++++++++@           ",
"           ++++++++++++++++++           ",
"           +++++@@@@@@@@.++++           ",
"          +++++          ++++@          ",
"          +++++          +++++          ",
"          ++++           +++++          ",
"         +++++            ++++@         ",
"         +++++            +++++         ",
"         ++++             .++++         ",
"        .++++              ++++@        ",
"       +++++++            .+++++.       ",
"                                        ",
"                                        ",
"                                        ",
"                                        ",
"                                        ",
"                                        "};
