/* XPM */
static char * char51_xpm[] = {
"22 30 2 1",
" 	c #000000",
".	c #E6E6E6",
"                      ",
"        .....         ",
"     ...........      ",
"    .............     ",
"   ..............     ",
"   .....     .....    ",
"  .....       ....    ",
"  ....        ....    ",
"  ....        ....    ",
"              ....    ",
"              ....    ",
"             .....    ",
"         ........     ",
"         ........     ",
"         .......      ",
"         ........     ",
"             .....    ",
"              ....    ",
"              ....    ",
"              ....    ",
"              ....    ",
"  ....        ....    ",
"  ....        ....    ",
"  .....      .....    ",
"   .....    ......    ",
"   ..............     ",
"    .............     ",
"     ..........       ",
"         ....         ",
"                      "};
