/* XPM */
static char * char66_xpm[] = {
"40 40 72 1",
" 	c #000000",
".	c #E1E1E1",
"+	c #E5E5E5",
"@	c #DEDEDE",
"#	c #E0E0E0",
"$	c #7A7A7A",
"%	c #FFFFFF",
"&	c #4A4A4A",
"*	c #8F8F8F",
"=	c #CECECE",
"-	c #757575",
";	c #6E6E6E",
">	c #DDDDDD",
",	c #7B7B7B",
"'	c #383838",
")	c #D9D9D9",
"!	c #767676",
"~	c #E7E7E7",
"{	c #D0D0D0",
"]	c #989898",
"^	c #010101",
"/	c #666666",
"(	c #D1D1D1",
"_	c #080808",
":	c #D2D2D2",
"<	c #A1A1A1",
"[	c #CCCCCC",
"}	c #868686",
"|	c #777777",
"1	c #828282",
"2	c #797979",
"3	c #CBCBCB",
"4	c #A2A2A2",
"5	c #979797",
"6	c #C6C6C6",
"7	c #C2C2C2",
"8	c #4B4B4B",
"9	c #CACACA",
"0	c #D8D8D8",
"a	c #BDBDBD",
"b	c #7D7D7D",
"c	c #282828",
"d	c #D4D4D4",
"e	c #DFDFDF",
"f	c #090909",
"g	c #8E8E8E",
"h	c #DADADA",
"i	c #8B8B8B",
"j	c #787878",
"k	c #6A6A6A",
"l	c #606060",
"m	c #A4A4A4",
"n	c #6D6D6D",
"o	c #CFCFCF",
"p	c #B9B9B9",
"q	c #959595",
"r	c #D5D5D5",
"s	c #696969",
"t	c #1C1C1C",
"u	c #343434",
"v	c #ADADAD",
"w	c #464646",
"x	c #A8A8A8",
"y	c #C7C7C7",
"z	c #DBDBDB",
"A	c #DCDCDC",
"B	c #C0C0C0",
"C	c #949494",
"D	c #272727",
"E	c #9A9A9A",
"F	c #C5C5C5",
"G	c #474747",
"                                        ",
"                                        ",
"                                        ",
"                                        ",
"          .+@.@.@.@##@                  ",
"          $%%%%%%%%%%%%&*=              ",
"          -%%%%%%%%%%%%%%%;>            ",
"          ,%%%%%%%%%%%%%%%%')           ",
"          !%%%~       {]^%%%/           ",
"          $%%%~         (_%%%:          ",
"          !%%%~          <%%%<          ",
"          $%%%~          [%%%}          ",
"          |%%%~          >%%%1          ",
"          2%%%~          3%%%4          ",
"          |%%%~          5%%%6          ",
"          2%%%~         7%%%8           ",
"          |%%%9~@~@~.0ab%%%cd           ",
"          2%%%%%%%%%%%%%%%1e            ",
"          |%%%%%%%%%%%%%fgh             ",
"          2%%%%%%%%%%%%%%%%i            ",
"          j%%%e       >ak%%%l           ",
"          |%%%#          m%%%$          ",
"          2%%%#           n%%%o         ",
"          |%%%#           p%%%q         ",
"          2%%%#           r%%%s         ",
"          |%%%#           e%%%t         ",
"          2%%%#           {%%%u         ",
"          |%%%#           v%%%j         ",
"          $%%%#           w%%%x         ",
"          !%%%#          b%%%%          ",
"          $%%%yz>A>AA=BCD%%%%v          ",
"          !%%%%%%%%%%%%%%%%%E           ",
"          $%%%%%%%%%%%%%%%&F            ",
"          !%%%%%%%%%%%G|m=              ",
"                                        ",
"                                        ",
"                                        ",
"                                        ",
"                                        ",
"                                        "};
