/* XPM */
static char * char48_xpm[] = {
"22 30 15 1",
" 	c #E6E6E6",
".	c #000000",
"+	c #FFFFFF",
"@	c #EDEDED",
"#	c #F3F3F3",
"$	c #1B1B1B",
"%	c #353535",
"&	c #FAFAFA",
"*	c #515151",
"=	c #6C6C6C",
"-	c #9C9C9C",
";	c #868686",
">	c #C6C6C6",
",	c #D8D8D8",
"'	c #B2B2B2",
"                      ",
"        -*%%%=->      ",
"      ;........$;     ",
"     *...........*    ",
"    *....*-'-*....*   ",
"   ;...%,     ,$...-  ",
"   ...$        $...$  ",
"  ;...-       ;.....- ",
"  $..%       >......% ",
"  ...=       %..*%... ",
"  ...'      ;...>-... ",
"  ...>     >...= >... ",
"  ...      %..$  ,... ",
"  ...     ;...;   $.. ",
"  ...    ,$..%    $.. ",
"  ...    *...>    $.. ",
"  ...   -...=    ,$.. ",
"  ..., ,$..$     >... ",
"  ...> =...'     '... ",
"  ...->...=      =... ",
"  ...%*..$,      *... ",
"  %......-      >...= ",
"  '.....*       *...  ",
"   %...$,      ;...*  ",
"   >....*,   >*....   ",
"    -......$......'   ",
"     '...........-    ",
"       =$.....$*>     ",
"         ';;;'        ",
"                      "};
