/* XPM */
static char * crosshair_xpm[] = {
"40 40 190 2",
"  	c #000000",
". 	c #763737",
"+ 	c #783637",
"@ 	c #783636",
"# 	c #773636",
"$ 	c #FB0809",
"% 	c #FE0000",
"& 	c #FB0000",
"* 	c #3D2828",
"= 	c #952121",
"- 	c #CA3736",
"; 	c #E42A2A",
"> 	c #FE0102",
", 	c #FD0000",
"' 	c #E42B2A",
") 	c #CA3333",
"! 	c #951D1D",
"~ 	c #3D2424",
"{ 	c #512222",
"] 	c #C12828",
"^ 	c #F61D1D",
"/ 	c #F71F1F",
"( 	c #C12525",
"_ 	c #511D1D",
": 	c #AE3D3E",
"< 	c #F82020",
"[ 	c #F81919",
"} 	c #AE3736",
"| 	c #340C0C",
"1 	c #D43332",
"2 	c #D83838",
"3 	c #320606",
"4 	c #31090A",
"5 	c #DC0E0E",
"6 	c #E12E2E",
"7 	c #A73A3A",
"8 	c #572626",
"9 	c #542626",
"0 	c #A63B3B",
"a 	c #DF2728",
"b 	c #DD1010",
"c 	c #310505",
"d 	c #D83A3B",
"e 	c #ED2929",
"f 	c #8C3232",
"g 	c #882F2F",
"h 	c #EB2424",
"i 	c #D83130",
"j 	c #B13C3C",
"k 	c #DF4343",
"l 	c #360C0C",
"m 	c #340B0B",
"n 	c #DA3A3A",
"o 	c #B33939",
"p 	c #4F1A1A",
"q 	c #DD3535",
"r 	c #352626",
"s 	c #211616",
"t 	c #DD3C3C",
"u 	c #F81010",
"v 	c #5F3132",
"w 	c #C43332",
"x 	c #F12727",
"y 	c #401A1A",
"z 	c #DD4848",
"A 	c #E04646",
"B 	c #E04645",
"C 	c #DD4645",
"D 	c #3B1616",
"E 	c #EF2525",
"F 	c #C83837",
"G 	c #392929",
"H 	c #F61716",
"I 	c #9D3333",
"J 	c #993535",
"K 	c #F81F1E",
"L 	c #412929",
"M 	c #942B2B",
"N 	c #EE2E2E",
"O 	c #EC3232",
"P 	c #972B2B",
"Q 	c #C33131",
"R 	c #BA1C1C",
"S 	c #B92928",
"T 	c #C42A2A",
"U 	c #9C3030",
"V 	c #C70303",
"W 	c #EF2D2D",
"X 	c #DC2020",
"Y 	c #560000",
"Z 	c #570404",
"` 	c #DC2D2D",
" .	c #F02B2B",
"..	c #992B2B",
"+.	c #C94041",
"@.	c #700000",
"#.	c #710405",
"$.	c #C43838",
"%.	c #5F1A1A",
"&.	c #7A0000",
"*.	c #DB2F2F",
"=.	c #BA2122",
"-.	c #320000",
";.	c #330101",
">.	c #BA3131",
",.	c #DF3535",
"'.	c #5D1616",
").	c #B52D2D",
"!.	c #D02F2F",
"~.	c #CF3E3F",
"{.	c #B82A2A",
"].	c #7D3F3F",
"^.	c #F82222",
"/.	c #4A2323",
"(.	c #401717",
"_.	c #F71B1B",
":.	c #803535",
"<.	c #E92F2F",
"[.	c #C13131",
"}.	c #594D4D",
"|.	c #5B4F4F",
"1.	c #BF3434",
"2.	c #ED3434",
"3.	c #A63636",
"4.	c #FD2020",
"5.	c #822626",
"6.	c #FA0909",
"7.	c #FA0000",
"8.	c #822F2F",
"9.	c #FC2223",
"0.	c #AA3333",
"a.	c #0E0707",
"b.	c #E82C2C",
"c.	c #F63030",
"d.	c #6D2727",
"e.	c #6A2A2A",
"f.	c #F32626",
"g.	c #E92222",
"h.	c #322828",
"i.	c #792C2C",
"j.	c #FA1717",
"k.	c #F93232",
"l.	c #8D2828",
"m.	c #8A2929",
"n.	c #F62B2B",
"o.	c #FC1D1D",
"p.	c #7B2828",
"q.	c #A22A2A",
"r.	c #FD0101",
"s.	c #CF302F",
"t.	c #6A2E2E",
"u.	c #693030",
"v.	c #CF3636",
"w.	c #FD0303",
"x.	c #FD0100",
"y.	c #A32323",
"z.	c #A51616",
"A.	c #FD0909",
"B.	c #DF3131",
"C.	c #B62F2F",
"D.	c #FC0506",
"E.	c #FC0000",
"F.	c #B63030",
"G.	c #DE2A2A",
"H.	c #FD0D0C",
"I.	c #FD0304",
"J.	c #AA2727",
"K.	c #973333",
"L.	c #F72626",
"M.	c #982C2C",
"N.	c #5A2424",
"O.	c #D12D2D",
"P.	c #FD0202",
"Q.	c #D43434",
"R.	c #5F2929",
"S.	c #722727",
"T.	c #CB2D2D",
"U.	c #F51B1B",
"V.	c #F61F1E",
"W.	c #CB2929",
"X.	c #742828",
"Y.	c #0A0404",
"Z.	c #812E2E",
"`.	c #A92626",
" +	c #FC0404",
".+	c #853333",
"++	c #140E0D",
"@+	c #6F4142",
"#+	c #704142",
"$+	c #6F4242",
"                                                                                ",
"                                    . + @ #                                     ",
"                                    $ % % &                                     ",
"                                    $ % % &                                     ",
"                                    $ % % &                                     ",
"                                    $ % % &                                     ",
"                            * = - ; > % % , ' ) ! ~                             ",
"                        { ] ^ % % % % % % % % % % / ( _                         ",
"                      : < % % % % % % % % % % % % % % [ }                       ",
"                  | 1 % % % % % % % % % % % % % % % % % % 2 3                   ",
"                4 5 % % % % % 6 7 8 $ % % & 9 0 a % % % % % b c                 ",
"                d % % % % e f       $ % % &       g h % % % % i                 ",
"              j % % % % k l         $ % % &         m n % % % % o               ",
"            p [ % % % q r           $ % % &           s t % % % u v             ",
"            w % % % x y             z A B C             D E % % % F             ",
"          G H % % % I                                     J % % % K L           ",
"          M % % % N                                         O % % % P           ",
"          Q % % % R                                         S % % % T           ",
"U V V V V W % % % X V V V V Y                     Z V V V V ` % % %  .V V V V ..",
"+.% % % % % % % % % % % % % @.                    #.% % % % % % % % % % % % % $.",
"+.% % % % % % % % % % % % % @.                    #.% % % % % % % % % % % % % $.",
"+.% % % % % % % % % % % % % @.                    #.% % % % % % % % % % % % % $.",
"%.&.&.&.&.*.% % % =.&.&.&.&.-.                    ;.&.&.&.&.>.% % % ,.&.&.&.&.'.",
"          ).% % % !.                                        ~.% % % {.          ",
"          ].% % % ^./.                                    (._.% % % :.          ",
"            <.% % % [.              }.|.|.|.              1.% % % 2.            ",
"            3.% % % 4.5.            6.% % 7.            8.9.% % % 0.            ",
"            a.b.% % % c.d.          $ % % &           e.f.% % % g.h.            ",
"              i.j.% % % k.l.        $ % % &         m.n.% % % o.p.              ",
"                q.r.% % % r.s.t.    $ % % &     u.v.w.% % % x.y.                ",
"                  z.A.% % % % A.B.C.D.% % E.F.G.H.% % % % I.J.                  ",
"                    K.L.% % % % % % % % % % % % % % % % / M.                    ",
"                      N.O.P.% % % % % % % % % % % % r.Q.R.                      ",
"                          S.T.U.% % % % % % % % V.W.X.                          ",
"                              Y.Z.`. +% % E.`..+++                              ",
"                                    $ % % &                                     ",
"                                    $ % % &                                     ",
"                                    $ % % &                                     ",
"                                    $ % % &                                     ",
"                                    @+#+#+$+                                    "};
