/* XPM */
static char * door_xpm[] = {
"40 40 20 1",
" 	c #959495",
".	c #8A8889",
"+	c #9C7A3C",
"@	c #7D7B7C",
"#	c #8D6E36",
"$	c #916C27",
"%	c #6F6D6E",
"&	c #856426",
"*	c #855C0F",
"=	c #5A5859",
"-	c #78530E",
";	c #6C4B0D",
">	c #61440C",
",	c #573D0B",
"'	c #4A3622",
")	c #41362C",
"!	c #43311F",
"~	c #3C2C1C",
"{	c #2C2015",
"]	c #20170F",
"''&$$-->''$$$$$''-&&$$-''##&&&''&++++&))",
"''-**;;>''*****''>--**;''&&*--''-&&&&>{{",
"'';--;;,''**---''>;;**;''**-;;'';--**,{{",
"''>;;;;,''**---''>;;**;''**-;;''>;;--,]]",
";;;;;**;''**---''>;;**;''-----''>;;>>~]]",
"!!===%%=''==%%%''===%%=''==%%%''===%%=]]",
"%%=&&&&;'';;&&&'';&&=='''&&&&&''';;&&']]",
"==&****;''-----'';**;;,''*****''>----,]]",
",,-****>''**-;;'';---->''*****'';--;;,]]",
"!!>;;;;,'';;;;;'';--**;'';;;;;'';--;;,{{",
"'';****;'';;;;;''>;;**;'';;---'',>>;;,{{",
"'';**-->''>>;;;''>;;-->'';;---'';**;;,{{",
"'';---->'';;;--''>;;-->'';;;--'';**;;,{{",
"''>;;-->'';;---''>;;-->'';;---'';**;;,]]",
"'';--;;,'';;---'',>>-->''**---'';----,]]",
"~~;**;;,''-----'';****;''**-;;'';**;;,]]",
"'';**;;,''**---''>;;**;''**-;;'';**--,]]",
"'';**;;,''**---''>;;**;''**-;;'';****,{{",
"'';&&&&'''&&&&&''';;##;''&&&&&'';&&##'{{",
"~~===%%=''==%%%''===%%=''==%%%''===%%={{",
"%%#**-->''*****''>;;**;''**@  @@#****>{{",
"))&**;;>''***--''>;;**;''..%##==%@@**>{{",
"'';--;;,''**---''>;;**;''  %;;''=@@**,{{",
"''>;;;;,''**---''>;;**;''@@%=====%%--,]]",
";;;;;**;''**---''>;;**;''--%@@%%=;;>>~]]",
"''>;;**;''*****''>;;**;''**---''>;;**,]]",
"'';****;'';;-**'';**;;,''**---''>;;**,]]",
">>-****;''-----'';**;;,''*****'';----,]]",
">>-****>''**-;;'';---->''*****'';**;;,]]",
"''>;;;;,'';;;;;'';--**;'';;;;;'';**;;,{{",
"'';****;'';;;;;''>;;**;'';;---'',>>;;,]]",
"'';**-->'',,>;;''>;;-->'';;---'';**;;,]]",
"!!'=====''====='''=====''=====''=====)]]",
"))===%%=''===%%''===%%=''===%%''===%%)]]",
"%%=--;;,'';;---'',>>-->''**---'';----,]]",
"~~;**;;,''-----'';****;''**-;;'';**>>!{{",
"'';**;;,''**---''>;;**;''**-;;'';**--,{{",
"'';**;;,''**---''>;;**;''**-;;'';****,{{",
"'';**;;,''**---''>;;**>''**-;;'';----,{{",
"''>;;;;,'';;>>>''>;;;;,'';;>>>'',>>>>!{{"};
