/* XPM */
static char * stone_xpm[] = {
"40 40 39 1",
" 	c #7F7F7F",
".	c #7C7C7C",
"+	c #747474",
"@	c #808080",
"#	c #8F8F8F",
"$	c #717171",
"%	c #686868",
"&	c #878787",
"*	c #767676",
"=	c #787878",
"-	c #7E7E7E",
";	c #7B7B7B",
">	c #828282",
",	c #868686",
"'	c #888888",
")	c #898989",
"!	c #777777",
"~	c #707070",
"{	c #8C8C8C",
"]	c #818181",
"^	c #6C6C6C",
"/	c #6D6D6D",
"(	c #757575",
"_	c #7A7A7A",
":	c #797979",
"<	c #6F6F6F",
"[	c #8A8A8A",
"}	c #727272",
"|	c #858585",
"1	c #848484",
"2	c #6E6E6E",
"3	c #696969",
"4	c #838383",
"5	c #8D8D8D",
"6	c #737373",
"7	c #7D7D7D",
"8	c #8B8B8B",
"9	c #6B6B6B",
"0	c #8E8E8E",
" .++++++++++. @#####$%$##&  *+++++++++= ",
" -;;>,,,,,,,'))#####!~!##{)),,]^/(;;;;_=",
"    )###############_+_#######'%%*    .+",
"    )###############_+_#######'%%*    .+",
" :%%<++++<%%$+++++++[#[++_       )##    ",
" :%%<++++<%%$+++++++[#[++_       )##    ",
" -_::::::*}}~~~::.@@&),::_;;;;;;;]||;;. ",
" 1##|       2%3  ,##4    :++++++++++++= ",
" 1##|       2%3  ,##4    :++++++++++++= ",
" 1##5{{*****6}}**=__!****][[[[[[[[[[[[]/",
" 1#####++++++++++++++++++1############4%",
"7>{{555(((((++++++++(((66>55555{{{{{8[]9",
"++++;       !+++++++7 ;%%(    7+++++%%~ ",
"++++;       !+++++++7 ;%%(    7+++++%%~ ",
"]]]]@       !+(]]]]]  766_     ]]]]];;:*",
"####|       !+*#####4         4#######4%",
"####|       !+*#####4         4#######4%",
">>>>@  *****(++_____!*+//}****!_____>>@;",
"       +++++++++++++++}%%<++++++++++    ",
" @44444}}(__(++*******($$*__________4444",
" 1#####%%:##;+(       >#################",
" 1#####%%:##;+(       >#################",
"  @@@@@<<*@@!++==;  (}*,,,,,]@@@@@@@##{,",
" .+++++++++++++++=  /%/     *+++++++##[ ",
" .+++++++++++++++=  /%/     *+++++++##[ ",
"  --&55+++++&55551((9%9((400555551--]@@ ",
"    )##+++++)####|++9%9++1#######,      ",
";.  &{{**(++&{{{{1**}$6__1{{{{{{{,4444@;",
"%<       ;++.       {####&       )####4%",
"%<       ;++.       {####&       )####4%",
"*!=======!++!=======8####4=======7@@@@.*",
" .++++++++++++++++++[####]++++++++++++= ",
" .++++++++++++++++++[####]++++++++++++= ",
" 1## ++##]%%_    ;+++++++2%%}+*     ####",
" 1## ++##]%%_    ;+++++++2%%}+*     ####",
" >)) :=||.//=;;;;=++=:::::::-    7;;||&)",
"       +++++++++++++7    '####{  =++++= ",
"       +++++++++++++7    '####{  =++++= ",
"!!!!!!!++$^^>''''4..-    >11-7.!!(++..7 ",
"+++++++++<%%&####)          *+++++++    "};
