/* XPM */
static char * wall_xpm[] = {
"40 40 1030 2",
"  	c #9B5845",
". 	c #9A5744",
"+ 	c #975441",
"@ 	c #925240",
"# 	c #945140",
"$ 	c #9C5646",
"% 	c #9B5846",
"& 	c #A57C73",
"* 	c #AA9B94",
"= 	c #AD9994",
"- 	c #9C5A45",
"; 	c #9C5645",
"> 	c #9C5845",
", 	c #9D5946",
"' 	c #9C5945",
") 	c #92513C",
"! 	c #8E513B",
"~ 	c #9B5642",
"{ 	c #A55B49",
"] 	c #A75B4A",
"^ 	c #9D5745",
"/ 	c #9C5644",
"( 	c #A25B48",
"_ 	c #AC604C",
": 	c #A85D49",
"< 	c #8F5039",
"[ 	c #904F3C",
"} 	c #A27B73",
"| 	c #B09E96",
"1 	c #B19D94",
"2 	c #995A46",
"3 	c #9A5545",
"4 	c #A15948",
"5 	c #A75B4B",
"6 	c #A65B4B",
"7 	c #9C5643",
"8 	c #9C5543",
"9 	c #985341",
"0 	c #8D523F",
"a 	c #91523F",
"b 	c #995745",
"c 	c #9B5745",
"d 	c #A57D73",
"e 	c #AD9894",
"f 	c #9C5944",
"g 	c #9B5544",
"h 	c #9D5747",
"i 	c #934F40",
"j 	c #90503F",
"k 	c #9B5741",
"l 	c #A45B46",
"m 	c #A75A47",
"n 	c #9F5645",
"o 	c #9E5544",
"p 	c #A45B4A",
"q 	c #AC5D4E",
"r 	c #AB5C4D",
"s 	c #914F3B",
"t 	c #8F4E3B",
"u 	c #A27C74",
"v 	c #B09E97",
"w 	c #9A5A46",
"x 	c #995746",
"y 	c #9E5B48",
"z 	c #A35C4A",
"A 	c #9F5544",
"B 	c #9B5643",
"C 	c #9A5643",
"D 	c #8B503C",
"E 	c #8B4F3B",
"F 	c #884D3A",
"G 	c #854D39",
"H 	c #90513F",
"I 	c #935140",
"J 	c #A68076",
"K 	c #AFA19A",
"L 	c #B49E9A",
"M 	c #A35F4A",
"N 	c #A65D4C",
"O 	c #914F3D",
"P 	c #8C4F40",
"Q 	c #814839",
"R 	c #7D4938",
"S 	c #824C3C",
"T 	c #884E40",
"U 	c #8A4F40",
"V 	c #8D503D",
"W 	c #8F513F",
"X 	c #945143",
"Y 	c #945244",
"Z 	c #874D3A",
"` 	c #8B4B39",
" .	c #A07A72",
"..	c #995847",
"+.	c #965643",
"@.	c #955341",
"#.	c #935240",
"$.	c #8C4F3C",
"%.	c #904E3C",
"&.	c #7E4438",
"*.	c #84493D",
"=.	c #87493D",
"-.	c #A5807A",
";.	c #B7A7A1",
">.	c #BDA49E",
",.	c #AF6450",
"'.	c #B4614F",
").	c #985743",
"!.	c #7A4736",
"~.	c #7B4639",
"{.	c #6F3E2F",
"].	c #6C3E2E",
"^.	c #6F3B2E",
"/.	c #69392B",
"(.	c #693B2C",
"_.	c #7C4739",
":.	c #7B4537",
"<.	c #794436",
"[.	c #774234",
"}.	c #784335",
"|.	c #7F4A3B",
"1.	c #83493A",
"2.	c #9D7A72",
"3.	c #B39C95",
"4.	c #9A5946",
"5.	c #9C5648",
"6.	c #8D4F3F",
"7.	c #7E4839",
"8.	c #7E4538",
"9.	c #7F4539",
"0.	c #854A3F",
"a.	c #88493E",
"b.	c #A6817A",
"c.	c #B4A69F",
"d.	c #B8A49C",
"e.	c #AE6751",
"f.	c #B0634F",
"g.	c #965743",
"h.	c #7D4537",
"i.	c #7D4438",
"j.	c #733E30",
"k.	c #69382A",
"l.	c #683A2B",
"m.	c #7B4638",
"n.	c #7A4537",
"o.	c #824939",
"p.	c #9D7B72",
"q.	c #B09F97",
"r.	c #B19E95",
"s.	c #975A45",
"t.	c #975746",
"u.	c #8C4F3F",
"v.	c #804538",
"w.	c #80463A",
"x.	c #7F4338",
"y.	c #894E40",
"z.	c #894D41",
"A.	c #713B2E",
"B.	c #6F3C30",
"C.	c #947A70",
"D.	c #AAA199",
"E.	c #B09D95",
"F.	c #9B5945",
"G.	c #9F5542",
"H.	c #904F3D",
"I.	c #804438",
"J.	c #804539",
"K.	c #7D4638",
"L.	c #7A4637",
"M.	c #774336",
"N.	c #724133",
"O.	c #714233",
"P.	c #7D4839",
"Q.	c #7B4637",
"R.	c #7E4535",
"S.	c #9C7A73",
"T.	c #AD9F98",
"U.	c #AF9D92",
"V.	c #844D38",
"W.	c #854A38",
"X.	c #874C3B",
"Y.	c #8D5042",
"Z.	c #8A5042",
"`.	c #7F4639",
" +	c #7D4538",
".+	c #86493C",
"++	c #8D4F42",
"@+	c #8E4F42",
"#+	c #7B4738",
"$+	c #804B3B",
"%+	c #8D4D3C",
"&+	c #8E4D40",
"*+	c #703A2F",
"=+	c #6C3B35",
"-+	c #957871",
";+	c #AF9F96",
">+	c #B29D91",
",+	c #99574A",
"'+	c #8C503F",
")+	c #7C4839",
"!+	c #7E4637",
"~+	c #7D4434",
"{+	c #794335",
"]+	c #764032",
"^+	c #7F4636",
"/+	c #7E4437",
"(+	c #7D4536",
"_+	c #9B7C72",
":+	c #AC9F99",
"<+	c #B59A91",
"[+	c #814D40",
"}+	c #864837",
"|+	c #894C3A",
"1+	c #8E513F",
"2+	c #8D513E",
"3+	c #7E4534",
"4+	c #834D39",
"5+	c #8A513D",
"6+	c #8C503E",
"7+	c #927068",
"8+	c #927067",
"9+	c #957269",
"0+	c #9A7266",
"a+	c #9B7169",
"b+	c #896C64",
"c+	c #896B64",
"d+	c #A08883",
"e+	c #B29F99",
"f+	c #B29F96",
"g+	c #9F7369",
"h+	c #9B7465",
"i+	c #977266",
"j+	c #916F66",
"k+	c #926E65",
"l+	c #936D64",
"m+	c #8F6D64",
"n+	c #8C6A62",
"o+	c #8D6B63",
"p+	c #936D65",
"q+	c #956E68",
"r+	c #946E67",
"s+	c #926C66",
"t+	c #916E63",
"u+	c #A38A81",
"v+	c #B1A19C",
"w+	c #B49F9A",
"x+	c #92716C",
"y+	c #946F64",
"z+	c #977163",
"A+	c #987164",
"B+	c #9A7165",
"C+	c #926E64",
"D+	c #916F67",
"E+	c #937464",
"F+	c #9A7667",
"G+	c #9C7668",
"H+	c #9F8E8B",
"I+	c #A18F8D",
"J+	c #9F8E8A",
"K+	c #9E8E85",
"L+	c #9C8C85",
"M+	c #998E85",
"N+	c #9C8C81",
"O+	c #A5988E",
"P+	c #B1A09B",
"Q+	c #B1A09C",
"R+	c #9F8C85",
"S+	c #9A8D83",
"T+	c #9C8C83",
"U+	c #9C8984",
"V+	c #9B8B83",
"W+	c #9A8B83",
"X+	c #998C87",
"Y+	c #998887",
"Z+	c #9A8883",
"`+	c #9D8984",
" @	c #9E8A86",
".@	c #A08C89",
"+@	c #9C8B86",
"@@	c #AA9791",
"#@	c #B7A49F",
"$@	c #B3A49C",
"%@	c #9B8D84",
"&@	c #9A8C83",
"*@	c #9B8C84",
"=@	c #9C8B82",
"-@	c #998A82",
";@	c #988A84",
">@	c #9D8F89",
",@	c #A4918A",
"'@	c #A5918B",
")@	c #A18E85",
"!@	c #A28E85",
"~@	c #A18D84",
"{@	c #A18B85",
"]@	c #A08B84",
"^@	c #9E8982",
"/@	c #9F8983",
"(@	c #A9948D",
"_@	c #B49D97",
":@	c #B39B95",
"<@	c #A18983",
"[@	c #9F8982",
"}@	c #9F8A83",
"|@	c #9F8981",
"1@	c #9C8886",
"2@	c #9C8880",
"3@	c #9C8983",
"4@	c #9D8A84",
"5@	c #9F8B85",
"6@	c #A08C86",
"7@	c #A08C87",
"8@	c #9E8A84",
"9@	c #AB968F",
"0@	c #B8A29B",
"a@	c #B9A19B",
"b@	c #A08A84",
"c@	c #9F8984",
"d@	c #9D8881",
"e@	c #A28D86",
"f@	c #A4928C",
"g@	c #A4928B",
"h@	c #8A4C40",
"i@	c #8B4C40",
"j@	c #925346",
"k@	c #9C5947",
"l@	c #9A5846",
"m@	c #995946",
"n@	c #9A5A47",
"o@	c #9B5947",
"p@	c #985644",
"q@	c #9B5847",
"r@	c #9C5948",
"s@	c #A88074",
"t@	c #AF9E97",
"u@	c #B19C93",
"v@	c #A85E4D",
"w@	c #A85C4B",
"x@	c #A15947",
"y@	c #9D5A49",
"z@	c #9C5A48",
"A@	c #9B5A46",
"B@	c #9C5946",
"C@	c #9B5948",
"D@	c #A77E74",
"E@	c #AE9B99",
"F@	c #AE9C93",
"G@	c #8A4B39",
"H@	c #8B4C3A",
"I@	c #92503F",
"J@	c #9E5547",
"K@	c #9B5646",
"L@	c #9D5646",
"M@	c #9B5545",
"N@	c #9C5448",
"O@	c #9D5347",
"P@	c #9D5446",
"Q@	c #9C5647",
"R@	c #975243",
"S@	c #91503F",
"T@	c #945040",
"U@	c #9B5546",
"V@	c #9B5647",
"W@	c #A77F74",
"X@	c #AE9F98",
"Y@	c #B29C95",
"Z@	c #A4604E",
"`@	c #A35D4B",
" #	c #A45D4B",
".#	c #A55C48",
"+#	c #A65C48",
"@#	c #A15846",
"##	c #A0584A",
"$#	c #9E5648",
"%#	c #9C5345",
"&#	c #9C5446",
"*#	c #9E5546",
"=#	c #9D5547",
"-#	c #A87D74",
";#	c #AF9C99",
">#	c #AD9C96",
",#	c #91513F",
"'#	c #91503E",
")#	c #8F4D3E",
"!#	c #8E5040",
"~#	c #9B5445",
"{#	c #965244",
"]#	c #8B4F3E",
"^#	c #834C3A",
"/#	c #854A39",
"(#	c #874A3A",
"_#	c #874D3B",
":#	c #884A3A",
"<#	c #8D4E3E",
"[#	c #8D4E3F",
"}#	c #A07D74",
"|#	c #AC9E98",
"1#	c #B29B96",
"2#	c #A05C4A",
"3#	c #A05A48",
"4#	c #995643",
"5#	c #92533F",
"6#	c #8C4E3C",
"7#	c #8A4E3D",
"8#	c #8A4E3E",
"9#	c #884D3C",
"0#	c #A27D76",
"a#	c #B09E98",
"b#	c #AF9F9B",
"c#	c #8F4D3D",
"d#	c #7E4537",
"e#	c #9B5548",
"f#	c #7C4737",
"g#	c #794636",
"h#	c #6C3D2C",
"i#	c #6B3C2B",
"j#	c #734131",
"k#	c #7D4637",
"l#	c #7C4536",
"m#	c #7B4436",
"n#	c #9B7A71",
"o#	c #AD9F99",
"p#	c #9A5947",
"q#	c #9A5844",
"r#	c #8E4F3D",
"s#	c #7C4537",
"t#	c #774031",
"u#	c #763F31",
"v#	c #794234",
"w#	c #7B4636",
"x#	c #7A4737",
"y#	c #6D3F2D",
"z#	c #6E3D2D",
"A#	c #784233",
"B#	c #804639",
"C#	c #7F4739",
"D#	c #7D4738",
"E#	c #9F7B75",
"F#	c #B3A19C",
"G#	c #B2A29D",
"H#	c #9C5745",
"I#	c #9C5547",
"J#	c #985443",
"K#	c #985544",
"L#	c #8A4E3F",
"M#	c #7B4538",
"N#	c #6D3D2D",
"O#	c #693D30",
"P#	c #714336",
"Q#	c #7D4437",
"R#	c #9A7A71",
"S#	c #AF9D99",
"T#	c #B09C93",
"U#	c #9C5B46",
"V#	c #9E573F",
"W#	c #7A4538",
"X#	c #764133",
"Y#	c #794336",
"Z#	c #723E30",
"`#	c #784235",
" $	c #7E473A",
".$	c #7D4739",
"+$	c #9D7B75",
"@$	c #B2A09A",
"#$	c #B29F9B",
"$$	c #9C5844",
"%$	c #834A3B",
"&$	c #633828",
"*$	c #663828",
"=$	c #884D39",
"-$	c #8B4B3A",
";$	c #7F4536",
">$	c #6F3E2E",
",$	c #794638",
"'$	c #7C453A",
")$	c #723F32",
"!$	c #643929",
"~$	c #683829",
"{$	c #7C4639",
"]$	c #9D7D75",
"^$	c #B4A09D",
"/$	c #B4A097",
"($	c #A3624D",
"_$	c #A65E45",
":$	c #713D2F",
"<$	c #7F4B3D",
"[$	c #804B3D",
"}$	c #7D483A",
"|$	c #9A7A73",
"1$	c #AE9C97",
"2$	c #AE9A97",
"3$	c #9D5647",
"4$	c #82493A",
"5$	c #63362A",
"6$	c #66352B",
"7$	c #884D3B",
"8$	c #884C3A",
"9$	c #7C4636",
"0$	c #6B3F2E",
"a$	c #6E3E2F",
"b$	c #7C4538",
"c$	c #734032",
"d$	c #64382D",
"e$	c #683729",
"f$	c #B5A19D",
"g$	c #B4A197",
"h$	c #A4624E",
"i$	c #A75E46",
"j$	c #703C2E",
"k$	c #804C3E",
"l$	c #774335",
"m$	c #7B4739",
"n$	c #AE9B96",
"o$	c #AE9B97",
"p$	c #9E726A",
"q$	c #9E716A",
"r$	c #956C65",
"s$	c #876A61",
"t$	c #927168",
"u$	c #957167",
"v$	c #906D64",
"w$	c #8C6B63",
"x$	c #906D65",
"y$	c #8F6F64",
"z$	c #8C6F62",
"A$	c #886C60",
"B$	c #8A6B62",
"C$	c #906E65",
"D$	c #906F65",
"E$	c #A68985",
"F$	c #B4A09A",
"G$	c #B1A198",
"H$	c #A4796A",
"I$	c #A27667",
"J$	c #997164",
"K$	c #8B6B65",
"L$	c #8C6B66",
"M$	c #906E66",
"N$	c #926F63",
"O$	c #8D6C62",
"P$	c #8E6D64",
"Q$	c #8F6D65",
"R$	c #906F63",
"S$	c #A08A85",
"T$	c #B09B96",
"U$	c #B09C97",
"V$	c #9E8B87",
"W$	c #9E8A87",
"X$	c #9D8B87",
"Y$	c #9B8D87",
"Z$	c #9A8C86",
"`$	c #9B8C87",
" %	c #9F8B87",
".%	c #9F8C88",
"+%	c #A08D89",
"@%	c #9F8C87",
"#%	c #A99590",
"$%	c #B1A099",
"%%	c #AEA098",
"&%	c #9E8C84",
"*%	c #9E8C85",
"=%	c #9E8B86",
"-%	c #9D8A86",
";%	c #9B8A85",
">%	c #9A8B85",
",%	c #998B85",
"'%	c #9C8B87",
")%	c #A6958E",
"!%	c #B3A29B",
"~%	c #A08981",
"{%	c #A08983",
"]%	c #9F8A86",
"^%	c #9D8C86",
"/%	c #9F8980",
"(%	c #9F8882",
"_%	c #A08B85",
":%	c #9E8A83",
"<%	c #A7958C",
"[%	c #B19E96",
"}%	c #B19D95",
"|%	c #9F8A84",
"1%	c #9E8A80",
"2%	c #9D8880",
"3%	c #9C8C84",
"4%	c #9E8A82",
"5%	c #9D8A83",
"6%	c #AF9E96",
"7%	c #B19F97",
"8%	c #9D5A4A",
"9%	c #9E5B4B",
"0%	c #9C5A49",
"a%	c #9B5848",
"b%	c #A67F75",
"c%	c #AEA097",
"d%	c #B09D96",
"e%	c #975A46",
"f%	c #975747",
"g%	c #995948",
"h%	c #9A5B49",
"i%	c #A05E4B",
"j%	c #A05E4C",
"k%	c #AC6250",
"l%	c #B16654",
"m%	c #AF6654",
"n%	c #9E5C49",
"o%	c #9C5A47",
"p%	c #9B5946",
"q%	c #9E5846",
"r%	c #A67E73",
"s%	c #AE9F96",
"t%	c #B09C94",
"u%	c #995B47",
"v%	c #9A5A45",
"w%	c #AE6552",
"x%	c #AD6653",
"y%	c #985A47",
"z%	c #7F4A3E",
"A%	c #82493B",
"B%	c #A05648",
"C%	c #A15748",
"D%	c #9F5546",
"E%	c #9E5445",
"F%	c #9C5545",
"G%	c #A78076",
"H%	c #AE9F97",
"I%	c #B19D97",
"J%	c #955844",
"K%	c #9C5546",
"L%	c #9D5443",
"M%	c #A25847",
"N%	c #A45A49",
"O%	c #AD6049",
"P%	c #B0634C",
"Q%	c #AF624C",
"R%	c #A15746",
"S%	c #A15747",
"T%	c #A05645",
"U%	c #9E5443",
"V%	c #9C5542",
"W%	c #A77E73",
"X%	c #985945",
"Y%	c #9D5546",
"Z%	c #9C5742",
"`%	c #B16250",
" &	c #B06351",
".&	c #804439",
"+&	c #814235",
"@&	c #905040",
"#&	c #905140",
"$&	c #8F503F",
"%&	c #8F4F3E",
"&&	c #A27B71",
"*&	c #AD9E96",
"=&	c #AF9B95",
"-&	c #955743",
";&	c #945443",
">&	c #905240",
",&	c #8D503E",
"'&	c #975443",
")&	c #9A5746",
"!&	c #92523F",
"~&	c #93523F",
"{&	c #8D4E3B",
"]&	c #904D3B",
"^&	c #A07970",
"/&	c #AC9D94",
"(&	c #AF9B93",
"_&	c #985944",
":&	c #9A5645",
"<&	c #965541",
"[&	c #90533E",
"}&	c #9C5744",
"|&	c #8B4F3C",
"1&	c #9C776E",
"2&	c #AB9A95",
"3&	c #AF9897",
"4&	c #965443",
"5&	c #945241",
"6&	c #8A4C3C",
"7&	c #7C4638",
"8&	c #864A3A",
"9&	c #884B3B",
"0&	c #8A4B3A",
"a&	c #874C3D",
"b&	c #7B4437",
"c&	c #7D4336",
"d&	c #98756F",
"e&	c #AB9A93",
"f&	c #AC9893",
"g&	c #985A44",
"h&	c #925140",
"i&	c #864D39",
"j&	c #864D3C",
"k&	c #7E4539",
"l&	c #9D786F",
"m&	c #AD9C97",
"n&	c #B19998",
"o&	c #975544",
"p&	c #945242",
"q&	c #894C3B",
"r&	c #85493E",
"s&	c #874A3D",
"t&	c #AB9B94",
"u&	c #AC9894",
"v&	c #854C3B",
"w&	c #7F4635",
"x&	c #874B3C",
"y&	c #884C3D",
"z&	c #834839",
"A&	c #854C3F",
"B&	c #874B3D",
"C&	c #A57E75",
"D&	c #B5A39D",
"E&	c #B8A19C",
"F&	c #99594A",
"G&	c #995645",
"H&	c #7A4839",
"I&	c #673629",
"J&	c #65342A",
"K&	c #713E30",
"L&	c #7C4738",
"M&	c #6E3D31",
"N&	c #6D3D31",
"O&	c #774436",
"P&	c #844838",
"Q&	c #9A7872",
"R&	c #AE9C98",
"S&	c #AF9993",
"T&	c #975946",
"U&	c #904E3F",
"V&	c #7F4734",
"W&	c #7F4736",
"X&	c #834A3A",
"Y&	c #7F493B",
"Z&	c #8C4B38",
"`&	c #8C4B39",
" *	c #874836",
".*	c #874C3C",
"+*	c #A58175",
"@*	c #B5A49F",
"#*	c #B9A298",
"$*	c #98594A",
"%*	c #8F4E3D",
"&*	c #7B4635",
"**	c #794738",
"=*	c #653529",
"-*	c #63362C",
";*	c #723D2D",
">*	c #7F4335",
",*	c #703C30",
"'*	c #703B2F",
")*	c #784336",
"!*	c #7D4535",
"~*	c #997A70",
"{*	c #AE9B9A",
"]*	c #B19A8F",
"^*	c #975846",
"/*	c #904D41",
"(*	c #7F4435",
"_*	c #804536",
":*	c #85493A",
"<*	c #854A3B",
"[*	c #814738",
"}*	c #966F67",
"|*	c #977068",
"1*	c #946E66",
"2*	c #916E65",
"3*	c #916E66",
"4*	c #926D64",
"5*	c #906D5F",
"6*	c #A48C80",
"7*	c #B6A2A0",
"8*	c #B4A29B",
"9*	c #9E736A",
"0*	c #967264",
"a*	c #8F6F65",
"b*	c #8F6E6A",
"c*	c #856963",
"d*	c #826A5F",
"e*	c #8A6D62",
"f*	c #926D65",
"g*	c #8B6B63",
"h*	c #8A6961",
"i*	c #936F66",
"j*	c #906D66",
"k*	c #8E6E64",
"l*	c #A18880",
"m*	c #B39B99",
"n*	c #AE9E94",
"o*	c #9E736C",
"p*	c #9C736A",
"q*	c #987068",
"r*	c #936E66",
"s*	c #9E8B84",
"t*	c #9D8A85",
"u*	c #9C8A84",
"v*	c #988682",
"w*	c #97867F",
"x*	c #A4958A",
"y*	c #B2A099",
"z*	c #AF9F9A",
"A*	c #A08B88",
"B*	c #9C8B84",
"C*	c #9B8A83",
"D*	c #9C8B85",
"E*	c #9E8887",
"F*	c #9E8986",
"G*	c #9B8B84",
"H*	c #9D8A87",
"I*	c #9C8B83",
"J*	c #9D8B83",
"K*	c #9D8C84",
"L*	c #9C8D85",
"M*	c #A9958F",
"N*	c #B7A09C",
"O*	c #B0A19B",
"P*	c #A08B89",
"Q*	c #9B8A88",
"R*	c #9E8C89",
"S*	c #A18E8B",
"T*	c #A18F88",
"U*	c #9C8A82",
"V*	c #998B86",
"W*	c #A08784",
"X*	c #A08882",
"Y*	c #9F8781",
"Z*	c #9D847F",
"`*	c #9C8380",
" =	c #A7928E",
".=	c #B39F99",
"+=	c #B29D96",
"@=	c #9F8883",
"#=	c #A28781",
"$=	c #9E8989",
"%=	c #9D8B84",
"&=	c #9E8883",
"*=	c #9E8882",
"==	c #A18883",
"-=	c #A48785",
";=	c #A18885",
">=	c #9E8983",
",=	c #9E8A81",
"'=	c #A9948C",
")=	c #B5A099",
"!=	c #B39E98",
"~=	c #9E8984",
"{=	c #A08B87",
"]=	c #A28D89",
"^=	c #A28D88",
"/=	c #9E8884",
"(=	c #A08982",
"_=	c #A08A86",
":=	c #9D5C47",
"<=	c #9D5B46",
"[=	c #9C5B45",
"}=	c #9D5C46",
"|=	c #A5624D",
"1=	c #A7604D",
"2=	c #9F5D48",
"3=	c #995B45",
"4=	c #975942",
"5=	c #985843",
"6=	c #995843",
"7=	c #995842",
"8=	c #975A47",
"9=	c #915543",
"0=	c #905443",
"a=	c #A07B72",
"b=	c #AA9896",
"c=	c #AD9593",
"d=	c #925746",
"e=	c #9E5E4C",
"f=	c #AF6553",
"g=	c #AC6652",
"h=	c #9A5945",
"i=	c #975945",
"j=	c #985A48",
"k=	c #985A4A",
"l=	c #965746",
"m=	c #955744",
"n=	c #965945",
"o=	c #975A44",
"p=	c #985B45",
"q=	c #AB867A",
"r=	c #B6A4A1",
"s=	c #B4A59C",
"t=	c #9D5844",
"u=	c #9E5945",
"v=	c #9F5946",
"w=	c #A25849",
"x=	c #A15749",
"y=	c #A85C4C",
"z=	c #AA5C48",
"A=	c #A35A44",
"B=	c #9B5742",
"C=	c #9A5644",
"D=	c #905142",
"E=	c #A17973",
"F=	c #AB9897",
"G=	c #AE9593",
"H=	c #965646",
"I=	c #965544",
"J=	c #A15D4B",
"K=	c #B2644F",
"L=	c #B1634F",
"M=	c #9E5542",
"N=	c #9A5646",
"O=	c #9A5546",
"P=	c #995445",
"Q=	c #985444",
"R=	c #9D5746",
"S=	c #9F5847",
"T=	c #9E5847",
"U=	c #AC857A",
"V=	c #B6A49D",
"W=	c #B5A59D",
"X=	c #975341",
"Y=	c #914F41",
"Z=	c #955243",
"`=	c #965341",
" -	c #8E4F3E",
".-	c #8D4E3C",
"+-	c #834836",
"@-	c #804839",
"#-	c #9C7772",
"$-	c #975644",
"%-	c #975745",
"&-	c #965845",
"*-	c #8D4F3D",
"=-	c #8A4C3D",
"--	c #8A4B3C",
";-	c #8B4D3D",
">-	c #8C4E3E",
",-	c #8F4E3F",
"'-	c #915041",
")-	c #A48077",
"!-	c #B4A299",
"~-	c #B2A29B",
"{-	c #9B5744",
"]-	c #7A4536",
"^-	c #794536",
"/-	c #7C4534",
"(-	c #6F3B2C",
"_-	c #6C3B2D",
":-	c #95726D",
"<-	c #AB9997",
"[-	c #9A5A49",
"}-	c #985745",
"|-	c #8D4E3D",
"1-	c #804739",
"2-	c #9E7A72",
"3-	c #B09F96",
"4-	c #AF9F98",
"5-	c #7E4639",
"6-	c #7C4337",
"7-	c #7C4437",
"8-	c #7E463A",
"9-	c #794637",
"0-	c #6F3D2E",
"a-	c #6D3B2D",
"b-	c #92736B",
"c-	c #AC9998",
"d-	c #995A47",
"e-	c #9B5644",
"f-	c #9A7C74",
"g-	c #B09E9A",
"h-	c #854C38",
"i-	c #6D3C2D",
"j-	c #703B2D",
"k-	c #834B3E",
"l-	c #844A3E",
"m-	c #81473B",
"n-	c #9A7B72",
"o-	c #B09C9B",
"p-	c #AF9B98",
"q-	c #8C503D",
"r-	c #7F4A3C",
"s-	c #81493C",
"t-	c #997C74",
"u-	c #9B5543",
"v-	c #6A3C2C",
"w-	c #6C3B2C",
"x-	c #814B3E",
"y-	c #B19D9C",
"z-	c #824A3D",
"A-	c #9E7369",
"B-	c #976F66",
"C-	c #8B6B61",
"D-	c #906E64",
"E-	c #916F68",
"F-	c #916F69",
"G-	c #906E67",
"H-	c #927069",
"I-	c #A28A85",
"J-	c #B29E99",
"K-	c #A0766D",
"L-	c #997168",
"M-	c #8F6D66",
"N-	c #916E68",
"O-	c #93716A",
"P-	c #94716B",
"Q-	c #926F69",
"R-	c #A68584",
"S-	c #AB9E96",
"T-	c #AF9B96",
"U-	c #9B8B86",
"V-	c #998782",
"W-	c #9C8A85",
"X-	c #9F8D87",
"Y-	c #9D8B85",
"Z-	c #AB9490",
"`-	c #B1A09A",
" ;	c #9E8E8A",
".;	c #9D8C88",
"+;	c #9B8983",
"@;	c #9E8C87",
"#;	c #A8918D",
"$;	c #AA9A93",
"%;	c #AC9892",
"&;	c #9F8A82",
"*;	c #9B8884",
"=;	c #9A8783",
"-;	c #B2A19A",
";;	c #A18C85",
">;	c #A28D85",
",;	c #9C8985",
"';	c #9D8986",
");	c #9F8C89",
"!;	c #A3938C",
"~;	c #AC9A93",
"  . + @ # $ % & * = - ; > , ' ) ! ~ { ] ^ / ( _ : < [ } | 1 2 3 4 5 6 ^   > > > ",
"7 8 9 0 a b c d * e f g > , h i j k l m n o p q r s t u v 1 w x y z ] A B C C C ",
"D E F G F H I J K L M N . O P Q R S T U V V W X Y Z `  .| 1 w ..+.@.#.$.D %.%.%.",
"&.&.&.&.&.*.=.-.;.>.,.'.).!.~.{.].^./.(._.:.<.[.}.|.1.2.| 3.4.5.6.7.8.&.&.&.&.&.",
"&.&.&.9.&.0.a.b.c.d.e.f.g.h.i.j.{.^.k.l.m._.n.[.}.|.o.p.q.r.s.t.u.v.w.&.&.9.9.9.",
"x.x.*.y.z.A.B.C.D.E.F.G.H.I.J.K.L.M.N.O.m.P.m.m.m.Q.R.S.T.U.V.W.X.Y.Z.`. +.+++@+",
"L.#+$+%+&+*+=+-+;+>+,+b '+)+!+~+R.{+]+]+^+^+R./+/+(+R._+:+<+[+}+|+1+2+3+Q.4+5+6+",
"7+8+9+0+a+b+c+d+e+f+g+h+i+j+k+l+l+m+n+o+l+l+p+q+r+s+t+u+v+w+x+y+z+A+B+C+D+E+F+G+",
"H+I+J+K+L+M+N+O+P+Q+R+S+T+U+V+V+W+X+Y+Z+U+`+ @.@.@+@W+@@#@$@%@&@*@&@=@-@;@>@,@'@",
")@!@~@{@]@^@/@(@_@:@<@[@}@}@}@/@/@|@1@2@3@4@5@6@7@8@}@9@0@a@<@b@c@c@/@d@^@e@f@g@",
"h@i@j@k@k@k@k@l@l@m@n@o@p@# @.q@r@s@t@u@v@5 w@w@] x@y@z@4.m@n@A@B@B@k@k@C@D@E@F@",
"G@H@I@J@K@L@M@N@O@P@K@Q@R@S@T@U@V@W@X@Y@Z@`@ #.#+#@###$#%#&#U@3 L@*#=#=#=#-#;#>#",
",#S@'#)#!#~#C {#&+]#^#/#(#_#:#<#[#}#|#1#2#3#4#5#5#6#7#8#6.]#^#^#9#[#u.]#]#0#a#b#",
"3 3 c#L.d#e#C ]#f#g#h#i#j#h.k#l#m#n#o#1#p#q#r#s#l#t#u#v#w#x#y#z#A#B#C#D#l#E#F#G#",
"H#I#u.!.(+J#K#L#n.M#N#O#P#w##+n.Q#R#S#T#U#V#r#m.W#X#]+Y#:.n.Z#j.`# $ $ $.$+$@$#$",
"$$Q@%$&$*$=$-$;$>$Z#,$'$)$!$~${$9.]$^$/$($_$W :$Z#<$[$_.}.[.m.m._.}$}$}$_.|$1$2$",
"  3$4$5$6$7$8$9$0$a$b$d#c$d$e$m.&.]$f$g$h$i$W j$:$k$[$~.[.l$_._.m$}$}$_.m.|$n$o$",
"p$q$r$s$s$t$u$v$o+w$x$y$z$A$B$C$D$E$F$G$H$I$J$K$L$M$N$t+O$P$Q$y$R$R$R$R$y$S$T$U$",
"+@+@+@V$W$X$Y$Y$Z$`$`$X$ %.%+%V$@%#%$%%%&%&%*%=%-%;%>%,%'%-%V$ %@%@%@% %=%)%!%!%",
"/@/@/@~%~%~%{%]%^%*%/%(%b@{@_%8@:%<%[%}%|%|%^@1%1%2%(%`+L+3%1%4%:%:%5%}@^@<%6%7%",
"8%9%0%a%a%C@z@b%c%d%e%f%g%h%o@i%j%k%l%m%n%n%o%p%o%A@q%r%s%t%u%C@o%o%v%w%x%y%z%A%",
"B%C%D%E%E%F%. G%H%I%J%R@~#K%L%M%N%O%P%Q%R%S%T%U%U%7 V%W%s%}%X%Y%U%A Z%`% &H#.&+&",
"@&#&$&%&%&%&H.&&*&=&-&;&>&,&r#,#@ '&)&)&5#5#!&~&@ {&]&^&/&(&_&:&<&5#[&}&. |&~.(+",
"&.&.&.&.&.h.R.1&2&3&4&5&6&/+&.&.&.m.m.7&8&8&9&0&a&b&c&d&e&f&g&g h&i&j&3+3+m.m.m.",
"9.k&9.&.&.8.^+l&m&n&o&p&q&/+7&m.m._._.7&r&r&s&0&a&b$Q#d&t&u&g&; @ i&v&w&w&7&}$}$",
"x&y&z&h.h.A&B&C&D&E&F&G&<#l#H&I&J&K&L&:.M&N&O&P&Q .$d#Q&R&S&T&M@U&V&W&X&X&Y&L&L&",
"Z&`& *R.R..*` +*@*#*$*~ %*&***=*-*;*R.>*,*'*)*o.o.R.!*~*{*]*^*K%/*(*_*:*<*[*;$R.",
"}*|*1*2*3*4*5*6*7*8*9*h+0*a*b*c*d*e*m+f*g*h*m+i*i*j*k*l*m*n*o*p*q*1*r*p+p+2*x$2*",
"5%5%s*t*u*v*w*x*y*z*A*B*C*D*E*F*4@G*H*I*t*t*4@J*K*L+L*M*N*O*P*Q*R*S*T*U*U*V*5@t*",
"W*W*W*X*Y*Z*`* =.=+=}@(%X*X*{%@=@=#=$=%=&=*===-=;=>=,='=)=!=|%~={=]=^=/=/=(=_=s*",
":=:=<=[=}=|=1=2=g&3=4=5=6=7=8=9=0=a=b=c=d=9=e=f=g=h=i=i=j=k=l=m=n=i=o=3=p=q=r=s=",
"t=u=v=w=x=y=z=A=B=:&K@K@K@K@C=h&D=E=F=G=H=I=J=K=L=M=N=N=O=O=P=Q=:&N=R=S=T=U=V=W=",
", > X=Y=Y=Z=`=!& -6.6.6.6.6..-+-@-#-F=G=g%$-%-&-J%*-6.6.6.[#=---;->-,-'-'-)-!-~-",
"> {-t s#7&]-^-Q#8.s#s#s#s#s#/-(-_-:-<-G=[-}-|-m#s#K.s#s#s#s#s#s#s#s#8.1-B#2-3-4-",
"> B D m$5-6-7-6-8-}$}$}$_.m.9-0-a-b-c-u&d-e-|&M#n._.}$}$}$}$_. +8.i.k&w.w.f-X@g-",
"{-/ h-i-j-k-l-m- +_._._._.m.7&7&M#n-o-p-d-7 q-_.m._._._._.}$r-s-w.&.9.w.w.t-X@g-",
"C u-h-v-w-x-l-m- +m.m.m.m.m.&.&.&.n-y-U$u%/ V m.m.m.m.m.m.7&r-z-w.&.9.w.w.t-X@g-",
"A-A-B-C-C-D-j*E-F-E-G-G-G-E-H-G-G-I-J-E.K-9*L-G-E-M-M-G-N-G-O-P-Q-G-G-E-Q-R-S-T-",
"U-'%U-X$X$Z+V-W-X-X-W-W-=%X-@%Y-W-Z-F$`- ; ;.;W-Y-+;+;u*Y-W-@;X-=%W-W-u*u*#;$;%;",
"&;&;}@V$V$*;=;W$.@+%-%H*.%+%.%W$-%Z-F$-;;;>;]@-%W$,;,;';W$W$+%+%);-%-%-%-%!;~;e&"};
